<?xml version="1.0" encoding="UTF-8"?>
<!--Generator: Apple Native CoreSVG 149-->
<!DOCTYPE svg
PUBLIC "-//W3C//DTD SVG 1.1//EN"
       "http://www.w3.org/Graphics/SVG/1.1/DTD/svg11.dtd">
<svg version="1.1" xmlns="http://www.w3.org/2000/svg" xmlns:xlink="http://www.w3.org/1999/xlink" width="3300" height="2200">
 <!--glyph: "uni1001CB.medium", point size: 100.000000, font version: "Version 16.0d18e1", template writer version: "8"-->
 <g id="Notes">
  <rect height="2200" id="artboard" style="fill:white;opacity:1" width="3300" x="0" y="0"/>
  <line id="" style="fill:none;stroke:black;opacity:1;stroke-width:0.5;" x1="263" x2="3036" y1="292" y2="292"/>
  <text style="stroke:none;fill:black;font-family:-apple-system,&quot;SF Pro Display&quot;,&quot;SF Pro Text&quot;,Helvetica,sans-serif;font-weight:bold;" transform="matrix(1 0 0 1 263 322)">Weight/Scale Variations</text>
  <text style="stroke:none;fill:black;font-family:-apple-system,&quot;SF Pro Display&quot;,&quot;SF Pro Text&quot;,Helvetica,sans-serif;text-anchor:middle;" transform="matrix(1 0 0 1 559.711 322)">Ultralight</text>
  <text style="stroke:none;fill:black;font-family:-apple-system,&quot;SF Pro Display&quot;,&quot;SF Pro Text&quot;,Helvetica,sans-serif;text-anchor:middle;" transform="matrix(1 0 0 1 856.422 322)">Thin</text>
  <text style="stroke:none;fill:black;font-family:-apple-system,&quot;SF Pro Display&quot;,&quot;SF Pro Text&quot;,Helvetica,sans-serif;text-anchor:middle;" transform="matrix(1 0 0 1 1153.13 322)">Light</text>
  <text style="stroke:none;fill:black;font-family:-apple-system,&quot;SF Pro Display&quot;,&quot;SF Pro Text&quot;,Helvetica,sans-serif;text-anchor:middle;" transform="matrix(1 0 0 1 1449.84 322)">Regular</text>
  <text style="stroke:none;fill:black;font-family:-apple-system,&quot;SF Pro Display&quot;,&quot;SF Pro Text&quot;,Helvetica,sans-serif;text-anchor:middle;" transform="matrix(1 0 0 1 1746.56 322)">Medium</text>
  <text style="stroke:none;fill:black;font-family:-apple-system,&quot;SF Pro Display&quot;,&quot;SF Pro Text&quot;,Helvetica,sans-serif;text-anchor:middle;" transform="matrix(1 0 0 1 2043.27 322)">Semibold</text>
  <text style="stroke:none;fill:black;font-family:-apple-system,&quot;SF Pro Display&quot;,&quot;SF Pro Text&quot;,Helvetica,sans-serif;text-anchor:middle;" transform="matrix(1 0 0 1 2339.98 322)">Bold</text>
  <text style="stroke:none;fill:black;font-family:-apple-system,&quot;SF Pro Display&quot;,&quot;SF Pro Text&quot;,Helvetica,sans-serif;text-anchor:middle;" transform="matrix(1 0 0 1 2636.69 322)">Heavy</text>
  <text style="stroke:none;fill:black;font-family:-apple-system,&quot;SF Pro Display&quot;,&quot;SF Pro Text&quot;,Helvetica,sans-serif;text-anchor:middle;" transform="matrix(1 0 0 1 2933.4 322)">Black</text>
  <line id="" style="fill:none;stroke:black;opacity:1;stroke-width:0.5;" x1="263" x2="3036" y1="1903" y2="1903"/>
  <g id="" transform="matrix(1 0 0 1 263 1933)">
   <path d="M9.24805 0.830078C13.5547 0.830078 17.1387-2.74414 17.1387-7.05078C17.1387-11.3574 13.5449-14.9316 9.23828-14.9316C4.94141-14.9316 1.36719-11.3574 1.36719-7.05078C1.36719-2.74414 4.95117 0.830078 9.24805 0.830078ZM9.24805-0.654297C5.70312-0.654297 2.87109-3.49609 2.87109-7.05078C2.87109-10.6055 5.69336-13.4473 9.23828-13.4473C12.793-13.4473 15.6348-10.6055 15.6445-7.05078C15.6543-3.49609 12.8027-0.654297 9.24805-0.654297ZM6.39648-6.31836L8.50586-6.31836L8.50586-4.19922C8.50586-3.75977 8.79883-3.45703 9.22852-3.45703C9.67773-3.45703 9.9707-3.75977 9.9707-4.19922L9.9707-6.31836L12.0996-6.31836C12.5391-6.31836 12.8418-6.61133 12.8418-7.04102C12.8418-7.48047 12.5391-7.7832 12.0996-7.7832L9.9707-7.7832L9.9707-9.89258C9.9707-10.3418 9.67773-10.6445 9.22852-10.6445C8.79883-10.6445 8.50586-10.3418 8.50586-9.89258L8.50586-7.7832L6.39648-7.7832C5.94727-7.7832 5.64453-7.48047 5.64453-7.04102C5.64453-6.61133 5.94727-6.31836 6.39648-6.31836Z"/>
  </g>
  <g id="" transform="matrix(1 0 0 1 281.506 1933)">
   <path d="M11.709 2.91016C17.1582 2.91016 21.6699-1.61133 21.6699-7.05078C21.6699-12.5 17.1484-17.0117 11.6992-17.0117C6.25977-17.0117 1.74805-12.5 1.74805-7.05078C1.74805-1.61133 6.26953 2.91016 11.709 2.91016ZM11.709 1.25C7.09961 1.25 3.41797-2.44141 3.41797-7.05078C3.41797-11.6602 7.08984-15.3516 11.6992-15.3516C16.3086-15.3516 20-11.6602 20.0098-7.05078C20.0195-2.44141 16.3184 1.25 11.709 1.25ZM7.98828-6.23047L10.8789-6.23047L10.8789-3.32031C10.8789-2.83203 11.2109-2.5 11.6895-2.5C12.1777-2.5 12.5195-2.83203 12.5195-3.32031L12.5195-6.23047L15.4297-6.23047C15.918-6.23047 16.25-6.5625 16.25-7.04102C16.25-7.5293 15.918-7.87109 15.4297-7.87109L12.5195-7.87109L12.5195-10.7617C12.5195-11.2695 12.1777-11.6016 11.6895-11.6016C11.2109-11.6016 10.8789-11.2598 10.8789-10.7617L10.8789-7.87109L7.98828-7.87109C7.48047-7.87109 7.14844-7.5293 7.14844-7.04102C7.14844-6.5625 7.49023-6.23047 7.98828-6.23047Z"/>
  </g>
  <g id="" transform="matrix(1 0 0 1 304.924 1933)">
   <path d="M14.9707 5.66406C21.9336 5.66406 27.6953-0.0976562 27.6953-7.05078C27.6953-14.0137 21.9238-19.7754 14.9609-19.7754C8.00781-19.7754 2.25586-14.0137 2.25586-7.05078C2.25586-0.0976562 8.01758 5.66406 14.9707 5.66406ZM14.9707 3.84766C8.93555 3.84766 4.08203-1.01562 4.08203-7.05078C4.08203-13.0957 8.92578-17.9492 14.9609-17.9492C21.0059-17.9492 25.8594-13.0957 25.8691-7.05078C25.8789-1.01562 21.0156 3.84766 14.9707 3.84766ZM10.0586-6.14258L14.0625-6.14258L14.0625-2.12891C14.0625-1.5918 14.4336-1.2207 14.9512-1.2207C15.4883-1.2207 15.8594-1.5918 15.8594-2.12891L15.8594-6.14258L19.8828-6.14258C20.4102-6.14258 20.791-6.51367 20.791-7.03125C20.791-7.56836 20.4199-7.94922 19.8828-7.94922L15.8594-7.94922L15.8594-11.9531C15.8594-12.5098 15.4883-12.8809 14.9512-12.8809C14.4336-12.8809 14.0625-12.5 14.0625-11.9531L14.0625-7.94922L10.0586-7.94922C9.50195-7.94922 9.13086-7.56836 9.13086-7.03125C9.13086-6.51367 9.51172-6.14258 10.0586-6.14258Z"/>
  </g>
  <text style="stroke:none;fill:black;font-family:-apple-system,&quot;SF Pro Display&quot;,&quot;SF Pro Text&quot;,Helvetica,sans-serif;font-weight:bold;" transform="matrix(1 0 0 1 263 1953)">Design Variations</text>
  <text style="stroke:none;fill:black;font-family:-apple-system,&quot;SF Pro Display&quot;,&quot;SF Pro Text&quot;,Helvetica,sans-serif;" transform="matrix(1 0 0 1 263 1971)">Symbols are supported in up to nine weights and three scales.</text>
  <text style="stroke:none;fill:black;font-family:-apple-system,&quot;SF Pro Display&quot;,&quot;SF Pro Text&quot;,Helvetica,sans-serif;" transform="matrix(1 0 0 1 263 1989)">For optimal layout with text and other symbols, vertically align</text>
  <text style="stroke:none;fill:black;font-family:-apple-system,&quot;SF Pro Display&quot;,&quot;SF Pro Text&quot;,Helvetica,sans-serif;" transform="matrix(1 0 0 1 263 2007)">symbols with the adjacent text.</text>
  <line id="" style="fill:none;stroke:#00AEEF;stroke-width:0.5;opacity:1.0;" x1="776" x2="776" y1="1919" y2="1933"/>
  <g id="" transform="matrix(1 0 0 1 776 1933)">
   <path d="M3.31055 0.126953C3.82812 0.126953 4.08203-0.0683594 4.26758-0.605469L5.52734-4.0625L11.2891-4.0625L12.5488-0.605469C12.7344-0.0683594 12.9883 0.126953 13.4961 0.126953C14.0137 0.126953 14.3457-0.185547 14.3457-0.673828C14.3457-0.839844 14.3164-0.986328 14.2383-1.20117L9.6582-13.3887C9.43359-13.9941 9.0332-14.2871 8.4082-14.2871C7.80273-14.2871 7.39258-13.9941 7.17773-13.3984L2.59766-1.19141C2.51953-0.976562 2.49023-0.830078 2.49023-0.664062C2.49023-0.175781 2.80273 0.126953 3.31055 0.126953ZM6.00586-5.53711L8.37891-12.1094L8.42773-12.1094L10.8008-5.53711Z"/>
  </g>
  <line id="" style="fill:none;stroke:#00AEEF;stroke-width:0.5;opacity:1.0;" x1="792.836" x2="792.836" y1="1919" y2="1933"/>
  <text style="stroke:none;fill:black;font-family:-apple-system,&quot;SF Pro Display&quot;,&quot;SF Pro Text&quot;,Helvetica,sans-serif;font-weight:bold;" transform="matrix(1 0 0 1 776 1953)">Margins</text>
  <text style="stroke:none;fill:black;font-family:-apple-system,&quot;SF Pro Display&quot;,&quot;SF Pro Text&quot;,Helvetica,sans-serif;" transform="matrix(1 0 0 1 776 1971)">Leading and trailing margins on the left and right side of each symbol</text>
  <text style="stroke:none;fill:black;font-family:-apple-system,&quot;SF Pro Display&quot;,&quot;SF Pro Text&quot;,Helvetica,sans-serif;" transform="matrix(1 0 0 1 776 1989)">can be adjusted by modifying the x-location of the margin guidelines.</text>
  <text style="stroke:none;fill:black;font-family:-apple-system,&quot;SF Pro Display&quot;,&quot;SF Pro Text&quot;,Helvetica,sans-serif;" transform="matrix(1 0 0 1 776 2007)">Modifications are automatically applied proportionally to all</text>
  <text style="stroke:none;fill:black;font-family:-apple-system,&quot;SF Pro Display&quot;,&quot;SF Pro Text&quot;,Helvetica,sans-serif;" transform="matrix(1 0 0 1 776 2025)">scales and weights.</text>
  <g id="" transform="matrix(1 0 0 1 1289 1933)">
   <path d="M2.8418 1.86523L4.54102 3.57422C5.40039 4.44336 6.38672 4.38477 7.31445 3.35938L17.4902-7.85156C17.7539-7.76367 18.0273-7.7832 18.3398-7.8418L19.4043-8.03711L20.0684-7.36328L20.0293-6.80664C19.9902-6.30859 20.1172-5.92773 20.6055-5.44922L21.3672-4.70703C21.8457-4.22852 22.4609-4.19922 22.9297-4.66797L25.8398-7.58789C26.3086-8.05664 26.2891-8.65234 25.8105-9.13086L25.0391-9.89258C24.5605-10.3711 24.1895-10.5273 23.7109-10.4883L23.1348-10.4395L22.4902-11.0742L22.7344-12.1973C22.8613-12.7637 22.7051-13.2031 22.1191-13.7891L19.9219-15.9766C16.582-19.2969 12.1484-19.2188 9.25781-16.3281C8.83789-15.918 8.80859-15.3418 9.04297-14.9512C9.27734-14.5898 9.73633-14.3555 10.3809-14.5215C11.8457-14.8633 13.3691-14.9219 14.7949-13.9844L14.209-12.5293C14.0137-12.0508 13.9844-11.6504 14.1113-11.2891L3.04688-0.898438C2.06055 0.0195312 1.98242 0.996094 2.8418 1.86523ZM10.752-15.957C13.1836-17.7344 16.4746-17.4316 18.7012-15.2051L21.1328-12.793C21.3672-12.5586 21.4062-12.373 21.3379-12.0312L21.0156-10.5469L22.5195-9.0625L23.5059-9.12109C23.7598-9.13086 23.8379-9.11133 24.0332-8.91602L24.6094-8.33984L22.168-5.89844L21.5918-6.47461C21.3965-6.66992 21.3672-6.74805 21.377-7.01172L21.4453-7.98828L19.9512-9.47266L18.4277-9.21875C18.1055-9.15039 17.959-9.17969 17.7148-9.41406L15.7129-11.416C15.459-11.6504 15.4297-11.8164 15.5859-12.1875L16.4648-14.2773C14.9023-15.7324 12.8711-16.3574 10.8398-15.7617C10.6836-15.7227 10.625-15.8496 10.752-15.957ZM5.27344 2.30469L4.10156 1.14258C3.63281 0.683594 3.74023 0.341797 4.14062-0.0195312L14.9512-10.1953L16.416-8.71094L6.42578 2.27539C6.07422 2.67578 5.74219 2.77344 5.27344 2.30469Z"/>
  </g>
  <text style="stroke:none;fill:black;font-family:-apple-system,&quot;SF Pro Display&quot;,&quot;SF Pro Text&quot;,Helvetica,sans-serif;font-weight:bold;" transform="matrix(1 0 0 1 1289 1953)">Exporting</text>
  <text style="stroke:none;fill:black;font-family:-apple-system,&quot;SF Pro Display&quot;,&quot;SF Pro Text&quot;,Helvetica,sans-serif;" transform="matrix(1 0 0 1 1289 1971)">Symbols should be outlined when exporting to ensure the</text>
  <text style="stroke:none;fill:black;font-family:-apple-system,&quot;SF Pro Display&quot;,&quot;SF Pro Text&quot;,Helvetica,sans-serif;" transform="matrix(1 0 0 1 1289 1989)">design is preserved when submitting to Xcode.</text>
  <text id="template-version" style="stroke:none;fill:black;font-family:-apple-system,&quot;SF Pro Display&quot;,&quot;SF Pro Text&quot;,Helvetica,sans-serif;text-anchor:end;" transform="matrix(1 0 0 1 3036 1933)">Template v.2.0</text>
  <text style="stroke:none;fill:black;font-family:-apple-system,&quot;SF Pro Display&quot;,&quot;SF Pro Text&quot;,Helvetica,sans-serif;text-anchor:end;" transform="matrix(1 0 0 1 3036 1951)">Requires Xcode 12 or greater</text>
  <text style="stroke:none;fill:black;font-family:-apple-system,&quot;SF Pro Display&quot;,&quot;SF Pro Text&quot;,Helvetica,sans-serif;text-anchor:end;" transform="matrix(1 0 0 1 3036 1969)">Generated from cloud.fog.fill</text>
  <text style="stroke:none;fill:black;font-family:-apple-system,&quot;SF Pro Display&quot;,&quot;SF Pro Text&quot;,Helvetica,sans-serif;text-anchor:end;" transform="matrix(1 0 0 1 3036 1987)">Typeset at 100 points</text>
  <text style="stroke:none;fill:black;font-family:-apple-system,&quot;SF Pro Display&quot;,&quot;SF Pro Text&quot;,Helvetica,sans-serif;" transform="matrix(1 0 0 1 263 726)">Small</text>
  <text style="stroke:none;fill:black;font-family:-apple-system,&quot;SF Pro Display&quot;,&quot;SF Pro Text&quot;,Helvetica,sans-serif;" transform="matrix(1 0 0 1 263 1156)">Medium</text>
  <text style="stroke:none;fill:black;font-family:-apple-system,&quot;SF Pro Display&quot;,&quot;SF Pro Text&quot;,Helvetica,sans-serif;" transform="matrix(1 0 0 1 263 1586)">Large</text>
 </g>
 <g id="Guides">
  <g id="H-reference" style="fill:#27AAE1;stroke:none;" transform="matrix(1 0 0 1 339 696)">
   <path d="M0.976562 0L3.66211 0L12.9883-24.4629L45.752-24.4629L55.127 0L57.7637 0L30.6152-70.459L28.125-70.459ZM29.3457-67.1387L29.4434-67.1387L44.873-26.709L13.8672-26.709Z"/>
  </g>
  <line id="Baseline-S" style="fill:none;stroke:#27AAE1;opacity:1;stroke-width:0.5;" x1="263" x2="3036" y1="696" y2="696"/>
  <line id="Capline-S" style="fill:none;stroke:#27AAE1;opacity:1;stroke-width:0.5;" x1="263" x2="3036" y1="625.541" y2="625.541"/>
  <g id="H-reference" style="fill:#27AAE1;stroke:none;" transform="matrix(1 0 0 1 339 1126)">
   <path d="M0.976562 0L3.66211 0L12.9883-24.4629L45.752-24.4629L55.127 0L57.7637 0L30.6152-70.459L28.125-70.459ZM29.3457-67.1387L29.4434-67.1387L44.873-26.709L13.8672-26.709Z"/>
  </g>
  <line id="Baseline-M" style="fill:none;stroke:#27AAE1;opacity:1;stroke-width:0.5;" x1="263" x2="3036" y1="1126" y2="1126"/>
  <line id="Capline-M" style="fill:none;stroke:#27AAE1;opacity:1;stroke-width:0.5;" x1="263" x2="3036" y1="1055.54" y2="1055.54"/>
  <g id="H-reference" style="fill:#27AAE1;stroke:none;" transform="matrix(1 0 0 1 339 1556)">
   <path d="M0.976562 0L3.66211 0L12.9883-24.4629L45.752-24.4629L55.127 0L57.7637 0L30.6152-70.459L28.125-70.459ZM29.3457-67.1387L29.4434-67.1387L44.873-26.709L13.8672-26.709Z"/>
  </g>
  <line id="Baseline-L" style="fill:none;stroke:#27AAE1;opacity:1;stroke-width:0.5;" x1="263" x2="3036" y1="1556" y2="1556"/>
  <line id="Capline-L" style="fill:none;stroke:#27AAE1;opacity:1;stroke-width:0.5;" x1="263" x2="3036" y1="1485.54" y2="1485.54"/>
  <line id="left-margin" style="fill:none;stroke:#00AEEF;stroke-width:0.5;opacity:1.0;" x1="1385.86" x2="1385.86" y1="1030.79" y2="1150.12"/>
  <line id="right-margin" style="fill:none;stroke:#00AEEF;stroke-width:0.5;opacity:1.0;" x1="1513.83" x2="1513.83" y1="1030.79" y2="1150.12"/>
 </g>
 <g id="Symbols">
  <g id="Black-L" transform="matrix(1 0 0 1 2846.24 1556)">
   <path d="M44.4824-1.80664L123.926-1.80664C146.045-1.80664 163.037-18.5547 163.037-40.2832C163.037-62.3535 145.898-79.1016 123.486-78.9551C115.039-95.3125 100.195-104.15 80.9082-104.15C56.1523-104.15 35.8398-86.4746 32.5195-62.1094C20.0684-57.9102 11.2793-47.168 11.2793-33.0078C11.2793-14.8438 25.0488-1.80664 44.4824-1.80664ZM127.148 13.7207L48.3887 13.7207C45.2637 13.7207 42.8223 15.9668 42.8223 18.9941C42.8223 21.9727 45.2637 24.2188 48.3887 24.2188L127.148 24.2188C130.322 24.2188 132.715 21.9727 132.715 18.9941C132.715 15.9668 130.322 13.7207 127.148 13.7207ZM127.148 35.1074L48.3887 35.1074C45.2637 35.1074 42.8223 37.3535 42.8223 40.3809C42.8223 43.3594 45.2637 45.6055 48.3887 45.6055L127.148 45.6055C130.322 45.6055 132.715 43.3594 132.715 40.3809C132.715 37.3535 130.322 35.1074 127.148 35.1074Z"/>
  </g>
  <g id="Heavy-L" transform="matrix(1 0 0 1 2550.68 1556)">
   <path d="M43.3594-2.88086L122.559-2.88086C144.141-2.88086 160.742-19.1895 160.742-40.2832C160.742-61.7188 143.848-77.9297 121.729-77.7832C113.379-94.1895 98.584-103.125 79.6875-103.125C55.3711-103.125 35.2539-85.2539 32.3242-61.1328C19.873-57.1289 11.2793-46.5332 11.2793-32.8125C11.2793-15.332 24.5117-2.88086 43.3594-2.88086ZM126.514 12.7441L46.7773 12.7441C43.8965 12.7441 41.6504 14.7949 41.6504 17.5781C41.6504 20.3125 43.8965 22.3633 46.7773 22.3633L126.514 22.3633C129.346 22.3633 131.592 20.3125 131.592 17.5781C131.592 14.7949 129.346 12.7441 126.514 12.7441ZM126.514 34.1309L46.7773 34.1309C43.8965 34.1309 41.6504 36.1816 41.6504 38.9648C41.6504 41.6992 43.8965 43.7988 46.7773 43.7988L126.514 43.7988C129.346 43.7988 131.592 41.6992 131.592 38.9648C131.592 36.1816 129.346 34.1309 126.514 34.1309Z"/>
  </g>
  <g id="Bold-L" transform="matrix(1 0 0 1 2255.29 1556)">
   <path d="M42.0898-4.10156L121.045-4.10156C141.992-4.10156 158.105-19.9219 158.105-40.332C158.105-60.9863 141.553-76.5625 119.775-76.416C111.523-92.8711 96.7773-101.953 78.3691-101.953C54.4922-101.953 34.668-83.9355 32.0801-60.0098C19.6777-56.25 11.2793-45.8008 11.2793-32.6172C11.2793-15.8691 23.9258-4.10156 42.0898-4.10156ZM125.732 11.6211L44.9219 11.6211C42.334 11.6211 40.3809 13.4766 40.3809 15.9668C40.3809 18.457 42.334 20.3125 44.9219 20.3125L125.732 20.3125C128.271 20.3125 130.273 18.457 130.273 15.9668C130.273 13.4766 128.271 11.6211 125.732 11.6211ZM125.732 33.0078L44.9219 33.0078C42.334 33.0078 40.3809 34.8633 40.3809 37.3535C40.3809 39.8438 42.334 41.6992 44.9219 41.6992L125.732 41.6992C128.271 41.6992 130.273 39.8438 130.273 37.3535C130.273 34.8633 128.271 33.0078 125.732 33.0078Z"/>
  </g>
  <g id="Semibold-L" transform="matrix(1 0 0 1 1959.45 1556)">
   <path d="M41.2109-4.93164L120.02-4.93164C140.527-4.93164 156.348-20.4102 156.348-40.332C156.348-60.498 139.99-75.6836 118.457-75.4883C110.205-91.9922 95.5566-101.172 77.4414-101.172C53.8574-101.172 34.2285-83.0566 31.9336-59.2773C19.5312-55.6641 11.2793-45.3125 11.2793-32.4707C11.2793-16.2598 23.5352-4.93164 41.2109-4.93164ZM125.244 10.8398L43.6523 10.8398C41.3086 10.8398 39.4531 12.5977 39.4531 14.8926C39.4531 17.1875 41.3086 18.8965 43.6523 18.8965L125.244 18.8965C127.539 18.8965 129.395 17.1875 129.395 14.8926C129.395 12.5977 127.539 10.8398 125.244 10.8398ZM125.244 32.2266L43.6523 32.2266C41.3086 32.2266 39.4531 33.9844 39.4531 36.2793C39.4531 38.5742 41.3086 40.2832 43.6523 40.2832L125.244 40.2832C127.539 40.2832 129.395 38.5742 129.395 36.2793C129.395 33.9844 127.539 32.2266 125.244 32.2266Z"/>
  </g>
  <g id="Medium-L" transform="matrix(1 0 0 1 1663.43 1556)">
   <path d="M40.5762-5.56641L119.238-5.56641C139.404-5.56641 154.98-20.8008 154.98-40.332C154.98-60.1074 138.818-74.9512 117.432-74.8047C109.229-91.3086 94.5801-100.537 76.709-100.537C53.418-100.537 33.8867-82.373 31.8359-58.6914C19.4336-55.2246 11.2793-44.9219 11.2793-32.3242C11.2793-16.5527 23.1934-5.56641 40.5762-5.56641ZM124.854 10.2539L42.6758 10.2539C40.4785 10.2539 38.7695 11.9141 38.7695 14.0625C38.7695 16.2109 40.4785 17.8223 42.6758 17.8223L124.854 17.8223C127.002 17.8223 128.711 16.2109 128.711 14.0625C128.711 11.9141 127.002 10.2539 124.854 10.2539ZM124.854 31.6895L42.6758 31.6895C40.4785 31.6895 38.7695 33.3008 38.7695 35.4492C38.7695 37.5977 40.4785 39.209 42.6758 39.209L124.854 39.209C127.002 39.209 128.711 37.5977 128.711 35.4492C128.711 33.3008 127.002 31.6895 124.854 31.6895Z"/>
  </g>
  <g id="Regular-L" transform="matrix(1 0 0 1 1367.62 1556)">
   <path d="M39.6973-6.39648L118.164-6.39648C137.939-6.39648 153.174-21.2891 153.174-40.332C153.174-59.6191 137.256-74.0723 116.113-73.877C107.959-90.4297 93.3594-99.7559 75.7812-99.7559C52.7832-99.7559 33.4473-81.4453 31.6895-57.959C19.2871-54.6387 11.2793-44.4336 11.2793-32.1777C11.2793-16.8945 22.8027-6.39648 39.6973-6.39648ZM124.316 9.52148L41.4062 9.52148C39.4531 9.52148 37.8906 10.9863 37.8906 12.9883C37.8906 14.9414 39.4531 16.4062 41.4062 16.4062L124.316 16.4062C126.27 16.4062 127.832 14.9414 127.832 12.9883C127.832 10.9863 126.27 9.52148 124.316 9.52148ZM124.316 30.9082L41.4062 30.9082C39.4531 30.9082 37.8906 32.373 37.8906 34.375C37.8906 36.3281 39.4531 37.793 41.4062 37.793L124.316 37.793C126.27 37.793 127.832 36.3281 127.832 34.375C127.832 32.373 126.27 30.9082 124.316 30.9082Z"/>
  </g>
  <g id="Light-L" transform="matrix(1 0 0 1 1071.35 1556)">
   <path d="M38.9648-7.51953L117.822-7.51953C137.207-7.51953 152.295-22.0703 152.295-40.7227C152.295-59.5703 136.523-73.6816 115.723-73.5352C107.52-90.5273 93.1641-99.7559 75.4395-99.7559C52.832-99.7559 33.7891-81.4941 32.0312-57.959C19.4336-54.6875 11.2793-44.6777 11.2793-32.5684C11.2793-17.7734 22.5098-7.51953 38.9648-7.51953ZM124.512 9.13086L40.2832 9.13086C38.7207 9.13086 37.4512 10.3027 37.4512 11.8652C37.4512 13.4277 38.7207 14.5996 40.2832 14.5996L124.512 14.5996C126.074 14.5996 127.344 13.4277 127.344 11.8652C127.344 10.3027 126.074 9.13086 124.512 9.13086ZM124.512 30.5176L40.2832 30.5176C38.7207 30.5176 37.4512 31.6895 37.4512 33.252C37.4512 34.8145 38.7207 35.9863 40.2832 35.9863L124.512 35.9863C126.074 35.9863 127.344 34.8145 127.344 33.252C127.344 31.6895 126.074 30.5176 124.512 30.5176Z"/>
  </g>
  <g id="Thin-L" transform="matrix(1 0 0 1 775.245 1556)">
   <path d="M37.9883-8.98438L117.334-8.98438C136.279-8.98438 151.074-23.1445 151.074-41.2598C151.074-59.4727 135.596-73.1934 115.234-73.0469C106.885-90.5762 92.9199-99.7559 74.9512-99.7559C52.832-99.7559 34.2285-81.4941 32.5195-57.959C19.5801-54.7363 11.2793-44.9219 11.2793-33.0566C11.2793-18.8965 22.168-8.98438 37.9883-8.98438ZM124.756 8.59375L38.8184 8.59375C37.7441 8.59375 36.8164 9.375 36.8164 10.4004C36.8164 11.4258 37.7441 12.1582 38.8184 12.1582L124.756 12.1582C125.83 12.1582 126.758 11.4258 126.758 10.4004C126.758 9.375 125.83 8.59375 124.756 8.59375ZM124.756 30.0293L38.8184 30.0293C37.7441 30.0293 36.8164 30.7617 36.8164 31.7871C36.8164 32.8125 37.7441 33.5449 38.8184 33.5449L124.756 33.5449C125.83 33.5449 126.758 32.8125 126.758 31.7871C126.758 30.7617 125.83 30.0293 124.756 30.0293Z"/>
  </g>
  <g id="Ultralight-L" transform="matrix(1 0 0 1 478.852 1556)">
   <path d="M37.5-9.7168L117.09-9.7168C135.791-9.7168 150.439-23.7305 150.439-41.5039C150.439-59.4727 135.156-72.9492 114.99-72.8027C106.592-90.625 92.7734-99.7559 74.707-99.7559C52.8809-99.7559 34.4727-81.4941 32.8125-57.959C19.6777-54.7363 11.2793-45.0684 11.2793-33.3008C11.2793-19.4824 21.9727-9.7168 37.5-9.7168ZM124.854 8.34961L38.0859 8.34961C37.2559 8.34961 36.5234 8.88672 36.5234 9.66797C36.5234 10.4004 37.2559 10.9375 38.0859 10.9375L124.854 10.9375C125.732 10.9375 126.416 10.4004 126.416 9.66797C126.416 8.88672 125.732 8.34961 124.854 8.34961ZM124.854 29.7363L38.0859 29.7363C37.2559 29.7363 36.5234 30.2734 36.5234 31.0547C36.5234 31.7871 37.2559 32.3242 38.0859 32.3242L124.854 32.3242C125.732 32.3242 126.416 31.7871 126.416 31.0547C126.416 30.2734 125.732 29.7363 124.854 29.7363Z"/>
  </g>
  <g id="Black-M" transform="matrix(1 0 0 1 2864.53 1126)">
   <path d="M35.5469-8.44727L97.7051-8.44727C115.381-8.44727 129.004-21.875 129.004-39.3066C129.004-57.0801 115.43-70.6543 97.8516-70.5078C91.1621-83.3984 79.6875-90.0391 64.1602-90.0391C44.5801-90.0391 28.7109-76.5137 25.6836-57.373C15.8691-53.8574 8.74023-45.459 8.74023-33.9844C8.74023-19.2383 20.0195-8.44727 35.5469-8.44727ZM99.5605 3.85742L39.1602 3.85742C36.5234 3.85742 34.5215 5.66406 34.5215 8.10547C34.5215 10.5469 36.5234 12.3535 39.1602 12.3535L99.5605 12.3535C102.197 12.3535 104.199 10.5469 104.199 8.10547C104.199 5.66406 102.197 3.85742 99.5605 3.85742ZM99.5605 20.4102L39.1602 20.4102C36.5234 20.4102 34.5215 22.2168 34.5215 24.6582C34.5215 27.0996 36.5234 28.9551 39.1602 28.9551L99.5605 28.9551C102.197 28.9551 104.199 27.0996 104.199 24.6582C104.199 22.2168 102.197 20.4102 99.5605 20.4102Z"/>
  </g>
  <g id="Heavy-M" transform="matrix(1 0 0 1 2568.96 1126)">
   <path d="M34.5215-9.375L96.2891-9.375C113.477-9.375 126.709-22.3633 126.709-39.2578C126.709-56.3965 113.379-69.4336 96.0449-69.3359C89.4531-82.1289 77.9785-88.916 62.9395-88.916C43.75-88.916 27.9785-75.2441 25.3418-56.2988C15.625-53.0273 8.74023-44.6777 8.74023-33.6914C8.74023-19.5312 19.4824-9.375 34.5215-9.375ZM98.7793 2.88086L37.6465 2.88086C35.2051 2.88086 33.3496 4.54102 33.3496 6.83594C33.3496 9.13086 35.2051 10.8398 37.6465 10.8398L98.7793 10.8398C101.172 10.8398 103.027 9.13086 103.027 6.83594C103.027 4.54102 101.172 2.88086 98.7793 2.88086ZM98.7793 19.4336L37.6465 19.4336C35.2051 19.4336 33.3496 21.1426 33.3496 23.4375C33.3496 25.6836 35.2051 27.3926 37.6465 27.3926L98.7793 27.3926C101.172 27.3926 103.027 25.6836 103.027 23.4375C103.027 21.1426 101.172 19.4336 98.7793 19.4336Z"/>
  </g>
  <g id="Bold-M" transform="matrix(1 0 0 1 2273.55 1126)">
   <path d="M33.3984-10.3516L94.7266-10.3516C111.328-10.3516 124.121-22.9004 124.121-39.1602C124.121-55.6152 111.084-68.0664 93.9941-67.9688C87.5488-80.6641 76.0742-87.6465 61.5234-87.6465C42.7734-87.6465 27.2461-73.7793 25-55.127C15.3809-52.0508 8.74023-43.8477 8.74023-33.3496C8.74023-19.873 18.8965-10.3516 33.3984-10.3516ZM97.9004 1.75781L35.9375 1.75781C33.7402 1.75781 32.0801 3.32031 32.0801 5.41992C32.0801 7.51953 33.7402 9.08203 35.9375 9.08203L97.9004 9.08203C100.098 9.08203 101.758 7.51953 101.758 5.41992C101.758 3.32031 100.098 1.75781 97.9004 1.75781ZM97.9004 18.3594L35.9375 18.3594C33.7402 18.3594 32.0801 19.9219 32.0801 22.0215C32.0801 24.1211 33.7402 25.6836 35.9375 25.6836L97.9004 25.6836C100.098 25.6836 101.758 24.1211 101.758 22.0215C101.758 19.9219 100.098 18.3594 97.9004 18.3594Z"/>
  </g>
  <g id="Semibold-M" transform="matrix(1 0 0 1 1977.71 1126)">
   <path d="M32.5684-11.0352L93.6523-11.0352C109.863-11.0352 122.363-23.291 122.363-39.0625C122.363-55.0781 109.521-67.1387 92.627-67.041C86.2305-79.6875 74.7559-86.7676 60.5957-86.7676C42.0898-86.7676 26.709-72.8027 24.7559-54.2969C15.1855-51.416 8.74023-43.2617 8.74023-33.1055C8.74023-20.1172 18.5059-11.0352 32.5684-11.0352ZM97.3145 0.976562L34.7656 0.976562C32.7637 0.976562 31.2012 2.49023 31.2012 4.44336C31.2012 6.44531 32.7637 7.91016 34.7656 7.91016L97.3145 7.91016C99.3164 7.91016 100.879 6.44531 100.879 4.44336C100.879 2.49023 99.3164 0.976562 97.3145 0.976562ZM97.3145 17.5781L34.7656 17.5781C32.7637 17.5781 31.2012 19.043 31.2012 21.0449C31.2012 22.998 32.7637 24.5117 34.7656 24.5117L97.3145 24.5117C99.3164 24.5117 100.879 22.998 100.879 21.0449C100.879 19.043 99.3164 17.5781 97.3145 17.5781Z"/>
  </g>
  <g id="Medium-M" transform="matrix(1 0 0 1 1681.69 1126)">
   <path d="M31.9824-11.5723L92.8711-11.5723C108.74-11.5723 120.996-23.584 120.996-39.0137C120.996-54.6875 108.301-66.4551 91.5527-66.3086C85.2539-78.9551 73.7793-86.084 59.8633-86.084C41.6016-86.084 26.2695-72.0215 24.5605-53.6621C15.0391-50.8789 8.74023-42.8223 8.74023-32.9102C8.74023-20.3125 18.2129-11.5723 31.9824-11.5723ZM96.8262 0.439453L33.8867 0.439453C31.9824 0.439453 30.5176 1.85547 30.5176 3.71094C30.5176 5.61523 31.9824 7.03125 33.8867 7.03125L96.8262 7.03125C98.7305 7.03125 100.195 5.61523 100.195 3.71094C100.195 1.85547 98.7305 0.439453 96.8262 0.439453ZM96.8262 16.9922L33.8867 16.9922C31.9824 16.9922 30.5176 18.4082 30.5176 20.3125C30.5176 22.168 31.9824 23.584 33.8867 23.584L96.8262 23.584C98.7305 23.584 100.195 22.168 100.195 20.3125C100.195 18.4082 98.7305 16.9922 96.8262 16.9922Z"/>
  </g>
  <g id="Regular-M" transform="matrix(1 0 0 1 1385.86 1126)">
   <path d="M31.2012-12.2559L91.7969-12.2559C107.324-12.2559 119.238-23.9746 119.238-38.9648C119.238-54.1504 106.738-65.5273 90.1855-65.3809C83.9355-77.9785 72.4609-85.2539 58.9355-85.2539C40.918-85.2539 25.7324-71.0449 24.3652-52.832C14.8926-50.2441 8.74023-42.2852 8.74023-32.666C8.74023-20.5566 17.8223-12.2559 31.2012-12.2559ZM96.2402-0.341797L32.7148-0.341797C31.0059-0.341797 29.6387 0.976562 29.6387 2.73438C29.6387 4.49219 31.0059 5.85938 32.7148 5.85938L96.2402 5.85938C97.9492 5.85938 99.3164 4.49219 99.3164 2.73438C99.3164 0.976562 97.9492-0.341797 96.2402-0.341797ZM96.2402 16.2598L32.7148 16.2598C31.0059 16.2598 29.6387 17.5781 29.6387 19.3359C29.6387 21.0938 31.0059 22.4121 32.7148 22.4121L96.2402 22.4121C97.9492 22.4121 99.3164 21.0938 99.3164 19.3359C99.3164 17.5781 97.9492 16.2598 96.2402 16.2598Z"/>
  </g>
  <g id="Light-M" transform="matrix(1 0 0 1 1089.56 1126)">
   <path d="M30.5176-13.2812L91.4551-13.2812C106.641-13.2812 118.408-24.6582 118.408-39.3066C118.408-54.1016 106.152-65.1855 89.8438-65.0879C83.5449-78.0273 72.3145-85.2539 58.6426-85.2539C40.918-85.2539 26.0254-71.0449 24.6582-52.832C14.9902-50.293 8.74023-42.4316 8.74023-33.0078C8.74023-21.2891 17.5781-13.2812 30.5176-13.2812ZM96.3867-0.683594L31.7383-0.683594C30.3223-0.683594 29.248 0.390625 29.248 1.75781C29.248 3.17383 30.3223 4.19922 31.7383 4.19922L96.3867 4.19922C97.8027 4.19922 98.9258 3.17383 98.9258 1.75781C98.9258 0.390625 97.8027-0.683594 96.3867-0.683594ZM96.3867 15.918L31.7383 15.918C30.3223 15.918 29.248 16.9434 29.248 18.3594C29.248 19.7266 30.3223 20.8008 31.7383 20.8008L96.3867 20.8008C97.8027 20.8008 98.9258 19.7266 98.9258 18.3594C98.9258 16.9434 97.8027 15.918 96.3867 15.918Z"/>
  </g>
  <g id="Thin-M" transform="matrix(1 0 0 1 793.385 1126)">
   <path d="M29.6387-14.5508L91.0156-14.5508C105.811-14.5508 117.334-25.6348 117.334-39.7949C117.334-54.0527 105.322-64.7461 89.4043-64.6484C82.959-78.125 72.0703-85.2539 58.2031-85.2539C40.9668-85.2539 26.4648-71.0938 25.0977-52.832C15.1367-50.3418 8.74023-42.6758 8.74023-33.4473C8.74023-22.3145 17.2363-14.5508 29.6387-14.5508ZM96.6309-1.12305L30.4199-1.12305C29.4434-1.12305 28.6621-0.488281 28.6621 0.439453C28.6621 1.36719 29.4434 2.05078 30.4199 2.05078L96.6309 2.05078C97.5586 2.05078 98.3398 1.36719 98.3398 0.439453C98.3398-0.488281 97.5586-1.12305 96.6309-1.12305ZM96.6309 15.4297L30.4199 15.4297C29.4434 15.4297 28.6621 16.1133 28.6621 17.041C28.6621 17.9199 29.4434 18.6035 30.4199 18.6035L96.6309 18.6035C97.5586 18.6035 98.3398 17.9199 98.3398 17.041C98.3398 16.1133 97.5586 15.4297 96.6309 15.4297Z"/>
  </g>
  <g id="Ultralight-M" transform="matrix(1 0 0 1 496.967 1126)">
   <path d="M29.1992-15.2344L90.8203-15.2344C105.371-15.2344 116.748-26.123 116.748-40.0391C116.748-54.0039 104.883-64.5508 89.1602-64.4043C82.7148-78.125 71.9238-85.2539 57.959-85.2539C40.9668-85.2539 26.6602-71.0938 25.3418-52.832C15.2344-50.3418 8.74023-42.8223 8.74023-33.6426C8.74023-22.8516 17.0898-15.2344 29.1992-15.2344ZM96.7285-1.36719L29.7363-1.36719C29.0039-1.36719 28.418-0.878906 28.418-0.244141C28.418 0.439453 29.0039 0.927734 29.7363 0.927734L96.7285 0.927734C97.4609 0.927734 98.0957 0.439453 98.0957-0.244141C98.0957-0.878906 97.4609-1.36719 96.7285-1.36719ZM96.7285 15.1855L29.7363 15.1855C29.0039 15.1855 28.418 15.6738 28.418 16.3574C28.418 17.041 29.0039 17.4805 29.7363 17.4805L96.7285 17.4805C97.4609 17.4805 98.0957 17.041 98.0957 16.3574C98.0957 15.6738 97.4609 15.1855 96.7285 15.1855Z"/>
  </g>
  <g id="Black-S" transform="matrix(1 0 0 1 2879.54 696)">
   <path d="M27.7832-14.3066L76.416-14.3066C90.2344-14.3066 100.879-24.8047 100.879-38.4277C100.879-52.2949 90.2832-62.8906 76.5137-62.793C71.2891-72.8516 62.3047-78.0762 50.1465-78.0762C34.8633-78.0762 22.4121-67.4805 20.0684-52.4902C12.4023-49.7559 6.83594-43.1641 6.83594-34.2285C6.83594-22.7051 15.625-14.3066 27.7832-14.3066ZM77.9297-4.6875L30.5664-4.6875C28.5156-4.6875 26.9531-3.27148 26.9531-1.36719C26.9531 0.537109 28.5156 1.95312 30.5664 1.95312L77.9297 1.95312C79.9805 1.95312 81.543 0.537109 81.543-1.36719C81.543-3.27148 79.9805-4.6875 77.9297-4.6875ZM77.9297 8.30078L30.5664 8.30078C28.5156 8.30078 26.9531 9.7168 26.9531 11.6211C26.9531 13.5254 28.5156 14.9414 30.5664 14.9414L77.9297 14.9414C79.9805 14.9414 81.543 13.5254 81.543 11.6211C81.543 9.7168 79.9805 8.30078 77.9297 8.30078Z"/>
  </g>
  <g id="Heavy-S" transform="matrix(1 0 0 1 2583.66 696)">
   <path d="M27.0508-14.8926L75.3906-14.8926C88.8672-14.8926 99.2188-25.0977 99.2188-38.3301C99.2188-51.7578 88.7695-62.0117 75.1465-61.9141C70.0195-71.875 61.0352-77.1973 49.2676-77.1973C34.1797-77.1973 21.8262-66.5039 19.7754-51.6602C12.207-49.1211 6.83594-42.5781 6.83594-33.9355C6.83594-22.8516 15.2344-14.8926 27.0508-14.8926ZM77.2949-5.41992L29.4922-5.41992C27.5879-5.41992 26.123-4.05273 26.123-2.24609C26.123-0.390625 27.5879 0.976562 29.4922 0.976562L77.2949 0.976562C79.248 0.976562 80.7129-0.390625 80.7129-2.24609C80.7129-4.05273 79.248-5.41992 77.2949-5.41992ZM77.2949 7.56836L29.4922 7.56836C27.5879 7.56836 26.123 8.93555 26.123 10.7422C26.123 12.5977 27.5879 13.9648 29.4922 13.9648L77.2949 13.9648C79.248 13.9648 80.7129 12.5977 80.7129 10.7422C80.7129 8.93555 79.248 7.56836 77.2949 7.56836Z"/>
  </g>
  <g id="Bold-S" transform="matrix(1 0 0 1 2287.88 696)">
   <path d="M26.2695-15.5273L74.2188-15.5273C87.3047-15.5273 97.3633-25.4395 97.3633-38.2324C97.3633-51.1719 87.1094-60.9863 73.6328-60.8887C68.6035-70.8008 59.5703-76.2695 48.2422-76.2695C33.4473-76.2695 21.1914-65.3809 19.4824-50.7812C12.0117-48.3887 6.83594-41.8945 6.83594-33.6426C6.83594-23.0469 14.8438-15.5273 26.2695-15.5273ZM76.6113-6.20117L28.3203-6.20117C26.5625-6.20117 25.1953-4.93164 25.1953-3.17383C25.1953-1.46484 26.5625-0.146484 28.3203-0.146484L76.6113-0.146484C78.418-0.146484 79.7852-1.46484 79.7852-3.17383C79.7852-4.93164 78.418-6.20117 76.6113-6.20117ZM76.6113 6.78711L28.3203 6.78711C26.5625 6.78711 25.1953 8.05664 25.1953 9.81445C25.1953 11.5234 26.5625 12.8418 28.3203 12.8418L76.6113 12.8418C78.418 12.8418 79.7852 11.5234 79.7852 9.81445C79.7852 8.05664 78.418 6.78711 76.6113 6.78711Z"/>
  </g>
  <g id="Semibold-S" transform="matrix(1 0 0 1 1991.83 696)">
   <path d="M25.7324-15.9668L73.4375-15.9668C86.2305-15.9668 96.0449-25.6348 96.0449-38.1348C96.0449-50.7812 85.9375-60.3027 72.6074-60.2051C67.627-70.0195 58.5938-75.5859 47.5586-75.5859C32.9102-75.5859 20.8008-64.5996 19.2871-50.1465C11.8652-47.8516 6.83594-41.4551 6.83594-33.4473C6.83594-23.1445 14.5508-15.9668 25.7324-15.9668ZM76.1719-6.73828L27.5391-6.73828C25.8301-6.73828 24.5605-5.51758 24.5605-3.85742C24.5605-2.14844 25.8301-0.927734 27.5391-0.927734L76.1719-0.927734C77.832-0.927734 79.1504-2.14844 79.1504-3.85742C79.1504-5.51758 77.832-6.73828 76.1719-6.73828ZM76.1719 6.25L27.5391 6.25C25.8301 6.25 24.5605 7.4707 24.5605 9.13086C24.5605 10.8398 25.8301 12.0605 27.5391 12.0605L76.1719 12.0605C77.832 12.0605 79.1504 10.8398 79.1504 9.13086C79.1504 7.4707 77.832 6.25 76.1719 6.25Z"/>
  </g>
  <g id="Medium-S" transform="matrix(1 0 0 1 1695.6 696)">
   <path d="M25.293-16.3086L72.8516-16.3086C85.4492-16.3086 95.0684-25.8301 95.0684-38.0859C95.0684-50.4883 85.0586-59.8145 71.8262-59.7168C66.8945-69.4336 57.8613-75.0977 47.0215-75.0977C32.5195-75.0977 20.459-64.0625 19.0918-49.6582C11.7188-47.4609 6.83594-41.1133 6.83594-33.252C6.83594-23.2422 14.3555-16.3086 25.293-16.3086ZM75.7812-7.17773L26.9043-7.17773C25.293-7.17773 24.0723-5.95703 24.0723-4.3457C24.0723-2.73438 25.293-1.51367 26.9043-1.51367L75.7812-1.51367C77.3926-1.51367 78.6621-2.73438 78.6621-4.3457C78.6621-5.95703 77.3926-7.17773 75.7812-7.17773ZM75.7812 5.81055L26.9043 5.81055C25.293 5.81055 24.0723 7.03125 24.0723 8.64258C24.0723 10.2539 25.293 11.4746 26.9043 11.4746L75.7812 11.4746C77.3926 11.4746 78.6621 10.2539 78.6621 8.64258C78.6621 7.03125 77.3926 5.81055 75.7812 5.81055Z"/>
  </g>
  <g id="Regular-S" transform="matrix(1 0 0 1 1399.53 696)">
   <path d="M24.7559-16.748L72.0703-16.748C84.375-16.748 93.7988-26.0254 93.7988-37.9883C93.7988-50.0977 83.9355-59.1309 70.8008-59.0332C65.9668-68.7012 56.8359-74.4141 46.3379-74.4141C32.0312-74.4141 20.0195-63.2812 18.8965-49.0234C11.5723-46.9727 6.83594-40.6738 6.83594-33.0566C6.83594-23.3398 14.0625-16.748 24.7559-16.748ZM75.3418-7.71484L26.123-7.71484C24.6094-7.71484 23.4375-6.54297 23.4375-4.98047C23.4375-3.41797 24.6094-2.24609 26.123-2.24609L75.3418-2.24609C76.8066-2.24609 78.0273-3.41797 78.0273-4.98047C78.0273-6.54297 76.8066-7.71484 75.3418-7.71484ZM75.3418 5.27344L26.123 5.27344C24.6094 5.27344 23.4375 6.44531 23.4375 8.00781C23.4375 9.57031 24.6094 10.7422 26.123 10.7422L75.3418 10.7422C76.8066 10.7422 78.0273 9.57031 78.0273 8.00781C78.0273 6.44531 76.8066 5.27344 75.3418 5.27344Z"/>
  </g>
  <g id="Light-S" transform="matrix(1 0 0 1 1103.18 696)">
   <path d="M24.1699-17.627L71.7773-17.627C83.7891-17.627 93.0664-26.709 93.0664-38.2812C93.0664-50.0488 83.3984-58.8379 70.5078-58.7402C65.5762-68.75 56.6895-74.4141 46.0449-74.4141C32.0312-74.4141 20.2637-63.2812 19.1895-49.0234C11.6699-47.0215 6.83594-40.8203 6.83594-33.3496C6.83594-24.0234 13.8672-17.627 24.1699-17.627ZM75.4883-8.00781L25.2441-8.00781C24.0234-8.00781 23.0469-7.08008 23.0469-5.85938C23.0469-4.63867 24.0234-3.71094 25.2441-3.71094L75.4883-3.71094C76.6602-3.71094 77.6367-4.63867 77.6367-5.85938C77.6367-7.08008 76.6602-8.00781 75.4883-8.00781ZM75.4883 4.98047L25.2441 4.98047C24.0234 4.98047 23.0469 5.9082 23.0469 7.12891C23.0469 8.34961 24.0234 9.27734 25.2441 9.27734L75.4883 9.27734C76.6602 9.27734 77.6367 8.34961 77.6367 7.12891C77.6367 5.9082 76.6602 4.98047 75.4883 4.98047Z"/>
  </g>
  <g id="Thin-S" transform="matrix(1 0 0 1 806.935 696)">
   <path d="M23.3887-18.7988L71.3867-18.7988C83.0566-18.7988 92.1387-27.5391 92.1387-38.7207C92.1387-50 82.666-58.4473 70.1172-58.3496C65.0879-68.7988 56.4941-74.4141 45.6543-74.4141C32.0801-74.4141 20.6055-63.3301 19.5801-49.0234C11.8164-47.0215 6.83594-41.0156 6.83594-33.7402C6.83594-24.9023 13.5742-18.7988 23.3887-18.7988ZM75.6348-8.44727L24.0723-8.44727C23.2422-8.44727 22.5586-7.8125 22.5586-7.03125C22.5586-6.20117 23.2422-5.61523 24.0723-5.61523L75.6348-5.61523C76.5137-5.61523 77.1484-6.20117 77.1484-7.03125C77.1484-7.8125 76.5137-8.44727 75.6348-8.44727ZM75.6348 4.54102L24.0723 4.54102C23.2422 4.54102 22.5586 5.17578 22.5586 5.95703C22.5586 6.78711 23.2422 7.37305 24.0723 7.37305L75.6348 7.37305C76.5137 7.37305 77.1484 6.78711 77.1484 5.95703C77.1484 5.17578 76.5137 4.54102 75.6348 4.54102Z"/>
  </g>
  <g id="Ultralight-S" transform="matrix(1 0 0 1 510.492 696)">
   <path d="M22.998-19.3848L71.1914-19.3848C82.666-19.3848 91.6016-27.9785 91.6016-38.916C91.6016-49.9512 82.2754-58.252 69.9219-58.1543C64.8438-68.8477 56.3965-74.4141 45.459-74.4141C32.0801-74.4141 20.8008-63.3301 19.7754-49.0234C11.9141-47.0703 6.83594-41.1133 6.83594-33.9355C6.83594-25.3906 13.4277-19.3848 22.998-19.3848ZM75.7812-8.64258L23.4863-8.64258C22.8516-8.64258 22.3145-8.20312 22.3145-7.61719C22.3145-7.03125 22.8516-6.5918 23.4863-6.5918L75.7812-6.5918C76.3672-6.5918 76.9043-7.03125 76.9043-7.61719C76.9043-8.20312 76.3672-8.64258 75.7812-8.64258ZM75.7812 4.3457L23.4863 4.3457C22.8516 4.3457 22.3145 4.78516 22.3145 5.37109C22.3145 5.95703 22.8516 6.39648 23.4863 6.39648L75.7812 6.39648C76.3672 6.39648 76.9043 5.95703 76.9043 5.37109C76.9043 4.78516 76.3672 4.3457 75.7812 4.3457Z"/>
  </g>
 </g>
</svg>
