<?xml version="1.0" encoding="UTF-8"?>
<!--Generator: Apple Native CoreSVG 149-->
<!DOCTYPE svg
PUBLIC "-//W3C//DTD SVG 1.1//EN"
       "http://www.w3.org/Graphics/SVG/1.1/DTD/svg11.dtd">
<svg version="1.1" xmlns="http://www.w3.org/2000/svg" xmlns:xlink="http://www.w3.org/1999/xlink" width="3300" height="2200">
 <!--glyph: "uni100655.medium", point size: 100.000000, font version: "Version 16.0d18e1", template writer version: "8"-->
 <g id="Notes">
  <rect height="2200" id="artboard" style="fill:white;opacity:1" width="3300" x="0" y="0"/>
  <line id="" style="fill:none;stroke:black;opacity:1;stroke-width:0.5;" x1="263" x2="3036" y1="292" y2="292"/>
  <text style="stroke:none;fill:black;font-family:-apple-system,&quot;SF Pro Display&quot;,&quot;SF Pro Text&quot;,Helvetica,sans-serif;font-weight:bold;" transform="matrix(1 0 0 1 263 322)">Weight/Scale Variations</text>
  <text style="stroke:none;fill:black;font-family:-apple-system,&quot;SF Pro Display&quot;,&quot;SF Pro Text&quot;,Helvetica,sans-serif;text-anchor:middle;" transform="matrix(1 0 0 1 559.711 322)">Ultralight</text>
  <text style="stroke:none;fill:black;font-family:-apple-system,&quot;SF Pro Display&quot;,&quot;SF Pro Text&quot;,Helvetica,sans-serif;text-anchor:middle;" transform="matrix(1 0 0 1 856.422 322)">Thin</text>
  <text style="stroke:none;fill:black;font-family:-apple-system,&quot;SF Pro Display&quot;,&quot;SF Pro Text&quot;,Helvetica,sans-serif;text-anchor:middle;" transform="matrix(1 0 0 1 1153.13 322)">Light</text>
  <text style="stroke:none;fill:black;font-family:-apple-system,&quot;SF Pro Display&quot;,&quot;SF Pro Text&quot;,Helvetica,sans-serif;text-anchor:middle;" transform="matrix(1 0 0 1 1449.84 322)">Regular</text>
  <text style="stroke:none;fill:black;font-family:-apple-system,&quot;SF Pro Display&quot;,&quot;SF Pro Text&quot;,Helvetica,sans-serif;text-anchor:middle;" transform="matrix(1 0 0 1 1746.56 322)">Medium</text>
  <text style="stroke:none;fill:black;font-family:-apple-system,&quot;SF Pro Display&quot;,&quot;SF Pro Text&quot;,Helvetica,sans-serif;text-anchor:middle;" transform="matrix(1 0 0 1 2043.27 322)">Semibold</text>
  <text style="stroke:none;fill:black;font-family:-apple-system,&quot;SF Pro Display&quot;,&quot;SF Pro Text&quot;,Helvetica,sans-serif;text-anchor:middle;" transform="matrix(1 0 0 1 2339.98 322)">Bold</text>
  <text style="stroke:none;fill:black;font-family:-apple-system,&quot;SF Pro Display&quot;,&quot;SF Pro Text&quot;,Helvetica,sans-serif;text-anchor:middle;" transform="matrix(1 0 0 1 2636.69 322)">Heavy</text>
  <text style="stroke:none;fill:black;font-family:-apple-system,&quot;SF Pro Display&quot;,&quot;SF Pro Text&quot;,Helvetica,sans-serif;text-anchor:middle;" transform="matrix(1 0 0 1 2933.4 322)">Black</text>
  <line id="" style="fill:none;stroke:black;opacity:1;stroke-width:0.5;" x1="263" x2="3036" y1="1903" y2="1903"/>
  <g id="" transform="matrix(1 0 0 1 263 1933)">
   <path d="M9.24805 0.830078C13.5547 0.830078 17.1387-2.74414 17.1387-7.05078C17.1387-11.3574 13.5449-14.9316 9.23828-14.9316C4.94141-14.9316 1.36719-11.3574 1.36719-7.05078C1.36719-2.74414 4.95117 0.830078 9.24805 0.830078ZM9.24805-0.654297C5.70312-0.654297 2.87109-3.49609 2.87109-7.05078C2.87109-10.6055 5.69336-13.4473 9.23828-13.4473C12.793-13.4473 15.6348-10.6055 15.6445-7.05078C15.6543-3.49609 12.8027-0.654297 9.24805-0.654297ZM6.39648-6.31836L8.50586-6.31836L8.50586-4.19922C8.50586-3.75977 8.79883-3.45703 9.22852-3.45703C9.67773-3.45703 9.9707-3.75977 9.9707-4.19922L9.9707-6.31836L12.0996-6.31836C12.5391-6.31836 12.8418-6.61133 12.8418-7.04102C12.8418-7.48047 12.5391-7.7832 12.0996-7.7832L9.9707-7.7832L9.9707-9.89258C9.9707-10.3418 9.67773-10.6445 9.22852-10.6445C8.79883-10.6445 8.50586-10.3418 8.50586-9.89258L8.50586-7.7832L6.39648-7.7832C5.94727-7.7832 5.64453-7.48047 5.64453-7.04102C5.64453-6.61133 5.94727-6.31836 6.39648-6.31836Z"/>
  </g>
  <g id="" transform="matrix(1 0 0 1 281.506 1933)">
   <path d="M11.709 2.91016C17.1582 2.91016 21.6699-1.61133 21.6699-7.05078C21.6699-12.5 17.1484-17.0117 11.6992-17.0117C6.25977-17.0117 1.74805-12.5 1.74805-7.05078C1.74805-1.61133 6.26953 2.91016 11.709 2.91016ZM11.709 1.25C7.09961 1.25 3.41797-2.44141 3.41797-7.05078C3.41797-11.6602 7.08984-15.3516 11.6992-15.3516C16.3086-15.3516 20-11.6602 20.0098-7.05078C20.0195-2.44141 16.3184 1.25 11.709 1.25ZM7.98828-6.23047L10.8789-6.23047L10.8789-3.32031C10.8789-2.83203 11.2109-2.5 11.6895-2.5C12.1777-2.5 12.5195-2.83203 12.5195-3.32031L12.5195-6.23047L15.4297-6.23047C15.918-6.23047 16.25-6.5625 16.25-7.04102C16.25-7.5293 15.918-7.87109 15.4297-7.87109L12.5195-7.87109L12.5195-10.7617C12.5195-11.2695 12.1777-11.6016 11.6895-11.6016C11.2109-11.6016 10.8789-11.2598 10.8789-10.7617L10.8789-7.87109L7.98828-7.87109C7.48047-7.87109 7.14844-7.5293 7.14844-7.04102C7.14844-6.5625 7.49023-6.23047 7.98828-6.23047Z"/>
  </g>
  <g id="" transform="matrix(1 0 0 1 304.924 1933)">
   <path d="M14.9707 5.66406C21.9336 5.66406 27.6953-0.0976562 27.6953-7.05078C27.6953-14.0137 21.9238-19.7754 14.9609-19.7754C8.00781-19.7754 2.25586-14.0137 2.25586-7.05078C2.25586-0.0976562 8.01758 5.66406 14.9707 5.66406ZM14.9707 3.84766C8.93555 3.84766 4.08203-1.01562 4.08203-7.05078C4.08203-13.0957 8.92578-17.9492 14.9609-17.9492C21.0059-17.9492 25.8594-13.0957 25.8691-7.05078C25.8789-1.01562 21.0156 3.84766 14.9707 3.84766ZM10.0586-6.14258L14.0625-6.14258L14.0625-2.12891C14.0625-1.5918 14.4336-1.2207 14.9512-1.2207C15.4883-1.2207 15.8594-1.5918 15.8594-2.12891L15.8594-6.14258L19.8828-6.14258C20.4102-6.14258 20.791-6.51367 20.791-7.03125C20.791-7.56836 20.4199-7.94922 19.8828-7.94922L15.8594-7.94922L15.8594-11.9531C15.8594-12.5098 15.4883-12.8809 14.9512-12.8809C14.4336-12.8809 14.0625-12.5 14.0625-11.9531L14.0625-7.94922L10.0586-7.94922C9.50195-7.94922 9.13086-7.56836 9.13086-7.03125C9.13086-6.51367 9.51172-6.14258 10.0586-6.14258Z"/>
  </g>
  <text style="stroke:none;fill:black;font-family:-apple-system,&quot;SF Pro Display&quot;,&quot;SF Pro Text&quot;,Helvetica,sans-serif;font-weight:bold;" transform="matrix(1 0 0 1 263 1953)">Design Variations</text>
  <text style="stroke:none;fill:black;font-family:-apple-system,&quot;SF Pro Display&quot;,&quot;SF Pro Text&quot;,Helvetica,sans-serif;" transform="matrix(1 0 0 1 263 1971)">Symbols are supported in up to nine weights and three scales.</text>
  <text style="stroke:none;fill:black;font-family:-apple-system,&quot;SF Pro Display&quot;,&quot;SF Pro Text&quot;,Helvetica,sans-serif;" transform="matrix(1 0 0 1 263 1989)">For optimal layout with text and other symbols, vertically align</text>
  <text style="stroke:none;fill:black;font-family:-apple-system,&quot;SF Pro Display&quot;,&quot;SF Pro Text&quot;,Helvetica,sans-serif;" transform="matrix(1 0 0 1 263 2007)">symbols with the adjacent text.</text>
  <line id="" style="fill:none;stroke:#00AEEF;stroke-width:0.5;opacity:1.0;" x1="776" x2="776" y1="1919" y2="1933"/>
  <g id="" transform="matrix(1 0 0 1 776 1933)">
   <path d="M3.31055 0.126953C3.82812 0.126953 4.08203-0.0683594 4.26758-0.605469L5.52734-4.0625L11.2891-4.0625L12.5488-0.605469C12.7344-0.0683594 12.9883 0.126953 13.4961 0.126953C14.0137 0.126953 14.3457-0.185547 14.3457-0.673828C14.3457-0.839844 14.3164-0.986328 14.2383-1.20117L9.6582-13.3887C9.43359-13.9941 9.0332-14.2871 8.4082-14.2871C7.80273-14.2871 7.39258-13.9941 7.17773-13.3984L2.59766-1.19141C2.51953-0.976562 2.49023-0.830078 2.49023-0.664062C2.49023-0.175781 2.80273 0.126953 3.31055 0.126953ZM6.00586-5.53711L8.37891-12.1094L8.42773-12.1094L10.8008-5.53711Z"/>
  </g>
  <line id="" style="fill:none;stroke:#00AEEF;stroke-width:0.5;opacity:1.0;" x1="792.836" x2="792.836" y1="1919" y2="1933"/>
  <text style="stroke:none;fill:black;font-family:-apple-system,&quot;SF Pro Display&quot;,&quot;SF Pro Text&quot;,Helvetica,sans-serif;font-weight:bold;" transform="matrix(1 0 0 1 776 1953)">Margins</text>
  <text style="stroke:none;fill:black;font-family:-apple-system,&quot;SF Pro Display&quot;,&quot;SF Pro Text&quot;,Helvetica,sans-serif;" transform="matrix(1 0 0 1 776 1971)">Leading and trailing margins on the left and right side of each symbol</text>
  <text style="stroke:none;fill:black;font-family:-apple-system,&quot;SF Pro Display&quot;,&quot;SF Pro Text&quot;,Helvetica,sans-serif;" transform="matrix(1 0 0 1 776 1989)">can be adjusted by modifying the x-location of the margin guidelines.</text>
  <text style="stroke:none;fill:black;font-family:-apple-system,&quot;SF Pro Display&quot;,&quot;SF Pro Text&quot;,Helvetica,sans-serif;" transform="matrix(1 0 0 1 776 2007)">Modifications are automatically applied proportionally to all</text>
  <text style="stroke:none;fill:black;font-family:-apple-system,&quot;SF Pro Display&quot;,&quot;SF Pro Text&quot;,Helvetica,sans-serif;" transform="matrix(1 0 0 1 776 2025)">scales and weights.</text>
  <g id="" transform="matrix(1 0 0 1 1289 1933)">
   <path d="M2.8418 1.86523L4.54102 3.57422C5.40039 4.44336 6.38672 4.38477 7.31445 3.35938L17.4902-7.85156C17.7539-7.76367 18.0273-7.7832 18.3398-7.8418L19.4043-8.03711L20.0684-7.36328L20.0293-6.80664C19.9902-6.30859 20.1172-5.92773 20.6055-5.44922L21.3672-4.70703C21.8457-4.22852 22.4609-4.19922 22.9297-4.66797L25.8398-7.58789C26.3086-8.05664 26.2891-8.65234 25.8105-9.13086L25.0391-9.89258C24.5605-10.3711 24.1895-10.5273 23.7109-10.4883L23.1348-10.4395L22.4902-11.0742L22.7344-12.1973C22.8613-12.7637 22.7051-13.2031 22.1191-13.7891L19.9219-15.9766C16.582-19.2969 12.1484-19.2188 9.25781-16.3281C8.83789-15.918 8.80859-15.3418 9.04297-14.9512C9.27734-14.5898 9.73633-14.3555 10.3809-14.5215C11.8457-14.8633 13.3691-14.9219 14.7949-13.9844L14.209-12.5293C14.0137-12.0508 13.9844-11.6504 14.1113-11.2891L3.04688-0.898438C2.06055 0.0195312 1.98242 0.996094 2.8418 1.86523ZM10.752-15.957C13.1836-17.7344 16.4746-17.4316 18.7012-15.2051L21.1328-12.793C21.3672-12.5586 21.4062-12.373 21.3379-12.0312L21.0156-10.5469L22.5195-9.0625L23.5059-9.12109C23.7598-9.13086 23.8379-9.11133 24.0332-8.91602L24.6094-8.33984L22.168-5.89844L21.5918-6.47461C21.3965-6.66992 21.3672-6.74805 21.377-7.01172L21.4453-7.98828L19.9512-9.47266L18.4277-9.21875C18.1055-9.15039 17.959-9.17969 17.7148-9.41406L15.7129-11.416C15.459-11.6504 15.4297-11.8164 15.5859-12.1875L16.4648-14.2773C14.9023-15.7324 12.8711-16.3574 10.8398-15.7617C10.6836-15.7227 10.625-15.8496 10.752-15.957ZM5.27344 2.30469L4.10156 1.14258C3.63281 0.683594 3.74023 0.341797 4.14062-0.0195312L14.9512-10.1953L16.416-8.71094L6.42578 2.27539C6.07422 2.67578 5.74219 2.77344 5.27344 2.30469Z"/>
  </g>
  <text style="stroke:none;fill:black;font-family:-apple-system,&quot;SF Pro Display&quot;,&quot;SF Pro Text&quot;,Helvetica,sans-serif;font-weight:bold;" transform="matrix(1 0 0 1 1289 1953)">Exporting</text>
  <text style="stroke:none;fill:black;font-family:-apple-system,&quot;SF Pro Display&quot;,&quot;SF Pro Text&quot;,Helvetica,sans-serif;" transform="matrix(1 0 0 1 1289 1971)">Symbols should be outlined when exporting to ensure the</text>
  <text style="stroke:none;fill:black;font-family:-apple-system,&quot;SF Pro Display&quot;,&quot;SF Pro Text&quot;,Helvetica,sans-serif;" transform="matrix(1 0 0 1 1289 1989)">design is preserved when submitting to Xcode.</text>
  <text id="template-version" style="stroke:none;fill:black;font-family:-apple-system,&quot;SF Pro Display&quot;,&quot;SF Pro Text&quot;,Helvetica,sans-serif;text-anchor:end;" transform="matrix(1 0 0 1 3036 1933)">Template v.2.0</text>
  <text style="stroke:none;fill:black;font-family:-apple-system,&quot;SF Pro Display&quot;,&quot;SF Pro Text&quot;,Helvetica,sans-serif;text-anchor:end;" transform="matrix(1 0 0 1 3036 1951)">Requires Xcode 12 or greater</text>
  <text style="stroke:none;fill:black;font-family:-apple-system,&quot;SF Pro Display&quot;,&quot;SF Pro Text&quot;,Helvetica,sans-serif;text-anchor:end;" transform="matrix(1 0 0 1 3036 1969)">Generated from umbrella</text>
  <text style="stroke:none;fill:black;font-family:-apple-system,&quot;SF Pro Display&quot;,&quot;SF Pro Text&quot;,Helvetica,sans-serif;text-anchor:end;" transform="matrix(1 0 0 1 3036 1987)">Typeset at 100 points</text>
  <text style="stroke:none;fill:black;font-family:-apple-system,&quot;SF Pro Display&quot;,&quot;SF Pro Text&quot;,Helvetica,sans-serif;" transform="matrix(1 0 0 1 263 726)">Small</text>
  <text style="stroke:none;fill:black;font-family:-apple-system,&quot;SF Pro Display&quot;,&quot;SF Pro Text&quot;,Helvetica,sans-serif;" transform="matrix(1 0 0 1 263 1156)">Medium</text>
  <text style="stroke:none;fill:black;font-family:-apple-system,&quot;SF Pro Display&quot;,&quot;SF Pro Text&quot;,Helvetica,sans-serif;" transform="matrix(1 0 0 1 263 1586)">Large</text>
 </g>
 <g id="Guides">
  <g id="H-reference" style="fill:#27AAE1;stroke:none;" transform="matrix(1 0 0 1 339 696)">
   <path d="M0.976562 0L3.66211 0L12.9883-24.4629L45.752-24.4629L55.127 0L57.7637 0L30.6152-70.459L28.125-70.459ZM29.3457-67.1387L29.4434-67.1387L44.873-26.709L13.8672-26.709Z"/>
  </g>
  <line id="Baseline-S" style="fill:none;stroke:#27AAE1;opacity:1;stroke-width:0.5;" x1="263" x2="3036" y1="696" y2="696"/>
  <line id="Capline-S" style="fill:none;stroke:#27AAE1;opacity:1;stroke-width:0.5;" x1="263" x2="3036" y1="625.541" y2="625.541"/>
  <g id="H-reference" style="fill:#27AAE1;stroke:none;" transform="matrix(1 0 0 1 339 1126)">
   <path d="M0.976562 0L3.66211 0L12.9883-24.4629L45.752-24.4629L55.127 0L57.7637 0L30.6152-70.459L28.125-70.459ZM29.3457-67.1387L29.4434-67.1387L44.873-26.709L13.8672-26.709Z"/>
  </g>
  <line id="Baseline-M" style="fill:none;stroke:#27AAE1;opacity:1;stroke-width:0.5;" x1="263" x2="3036" y1="1126" y2="1126"/>
  <line id="Capline-M" style="fill:none;stroke:#27AAE1;opacity:1;stroke-width:0.5;" x1="263" x2="3036" y1="1055.54" y2="1055.54"/>
  <g id="H-reference" style="fill:#27AAE1;stroke:none;" transform="matrix(1 0 0 1 339 1556)">
   <path d="M0.976562 0L3.66211 0L12.9883-24.4629L45.752-24.4629L55.127 0L57.7637 0L30.6152-70.459L28.125-70.459ZM29.3457-67.1387L29.4434-67.1387L44.873-26.709L13.8672-26.709Z"/>
  </g>
  <line id="Baseline-L" style="fill:none;stroke:#27AAE1;opacity:1;stroke-width:0.5;" x1="263" x2="3036" y1="1556" y2="1556"/>
  <line id="Capline-L" style="fill:none;stroke:#27AAE1;opacity:1;stroke-width:0.5;" x1="263" x2="3036" y1="1485.54" y2="1485.54"/>
  <line id="left-margin" style="fill:none;stroke:#00AEEF;stroke-width:0.5;opacity:1.0;" x1="1391.4" x2="1391.4" y1="1030.79" y2="1150.12"/>
  <line id="right-margin" style="fill:none;stroke:#00AEEF;stroke-width:0.5;opacity:1.0;" x1="1508.29" x2="1508.29" y1="1030.79" y2="1150.12"/>
 </g>
 <g id="Symbols">
  <g id="Black-L" transform="matrix(1 0 0 1 2850.86 1556)">
   <path d="M24.707-23.7793C28.7598-23.7793 31.4453-25.6836 35.8398-29.6875C38.2324-32.2754 41.0645-33.9355 44.6777-33.9355C48.291-33.9355 51.123-31.9336 54.7363-27.7344C56.9824-25.2441 59.2773-23.7793 62.3047-23.7793C65.1855-23.7793 67.5293-25.293 69.7754-27.6855C70.7031-28.7109 71.7773-29.6387 72.9004-30.4688L72.9004 14.3555C72.9004 17.1387 70.8496 19.7266 67.5293 19.7266C64.2578 19.7266 62.1582 17.1387 62.1582 14.0625C62.1582 8.44727 58.1543 4.19922 52.7344 4.19922C47.0703 4.19922 42.8711 8.44727 42.8711 14.3555C42.8711 27.4414 53.7109 37.6953 67.627 37.6953C81.543 37.6953 92.1875 29.4922 92.1875 15.0391L92.1875-30.6641C93.3594-29.8828 94.3848-28.9551 95.2637-27.9785C97.8027-25.4883 99.9023-23.7793 102.783-23.7793C105.713-23.7793 108.057-25.2441 110.449-27.6855C114.062-31.6895 117.041-33.9355 120.508-33.9355C124.072-33.9355 126.904-32.4219 129.346-29.5898C133.545-25.6348 136.377-23.7793 140.381-23.7793C145.068-23.7793 149.023-27.7344 149.023-32.8125C149.023-56.7383 131.055-91.8457 92.1387-96.8262L92.1387-102.832C92.1387-108.35 87.9883-112.549 82.5195-112.549C77.0996-112.549 72.9492-108.496 72.9492-102.832L72.9492-96.8262C34.0332-91.8457 16.0645-56.7383 16.0645-32.8125C16.0645-27.6367 20.0195-23.7793 24.707-23.7793ZM98.5352-42.5781C94.8242-46.9238 88.6719-50.293 82.5195-50.293C76.416-50.293 70.2637-46.9238 66.6016-42.6758C66.1621-42.1387 65.8203-41.9434 65.3809-41.9434C64.9902-41.9434 64.6484-42.1387 64.209-42.7246C60.8398-47.2656 55.8594-50.2441 50-50.2441C43.9941-50.2441 38.7207-47.2656 35.5469-42.9688C38.5742-58.9355 53.3691-80.1758 82.5195-80.0781C111.719-80.0293 126.514-58.8867 129.541-42.9688C126.318-47.2656 121.094-50.2441 115.088-50.2441C109.229-50.2441 104.248-47.2168 100.879-42.5781C100.488-42.0898 100.098-41.7969 99.707-41.7969C99.3164-41.7969 98.9746-42.0898 98.5352-42.5781Z"/>
  </g>
  <g id="Heavy-L" transform="matrix(1 0 0 1 2556.05 1556)">
   <path d="M23.6816-25.3418C27.1484-25.3418 29.4922-27.0996 33.1055-30.4688C35.791-33.7891 38.9648-35.791 43.2129-35.791C47.4609-35.791 50.4883-33.5449 54.0039-29.0039C55.957-26.709 57.959-25.3418 60.6934-25.3418C63.2812-25.3418 65.332-26.7578 67.2852-28.9551C68.6035-30.6641 70.2637-32.1289 72.1191-33.3008L72.1191 13.7207C72.1191 17.1387 69.7266 20.0195 65.8691 20.0195C62.0605 20.0195 59.5703 17.0898 59.5703 13.5254C59.5703 8.39844 56.0547 4.73633 51.2695 4.73633C46.2891 4.73633 42.5781 8.39844 42.5781 13.7207C42.5781 26.2207 52.7832 35.9863 65.918 35.9863C79.1016 35.9863 89.1113 27.7832 89.1113 14.2578L89.1113-33.3984C91.0156-32.2754 92.6758-30.8105 93.9941-29.1992C96.1426-26.9043 97.998-25.3418 100.586-25.3418C103.223-25.3418 105.225-26.709 107.275-28.9551C110.84-33.3496 114.014-35.791 118.115-35.791C122.363-35.791 125.488-33.9355 128.271-30.4199C131.689-27.0508 134.131-25.3418 137.598-25.3418C141.699-25.3418 145.215-28.8086 145.215-33.3496C145.215-56.8848 127.441-90.9668 89.0625-95.4102L89.0625-101.953C89.0625-106.934 85.4492-110.596 80.6152-110.596C75.8301-110.596 72.168-106.982 72.168-101.953L72.168-95.4102C33.7891-90.9668 16.0645-56.8848 16.0645-33.3496C16.0645-28.7109 19.5801-25.3418 23.6816-25.3418ZM97.1191-42.0898C93.457-46.7285 87.0605-50.2441 80.6152-50.2441C74.1699-50.2441 67.7734-46.7285 64.1602-42.1387C63.7695-41.6504 63.4766-41.4551 63.0859-41.4551C62.7441-41.4551 62.4023-41.6504 62.0117-42.1875C58.6426-47.168 53.4668-50.1465 47.5098-50.1465C41.3574-50.1465 36.084-47.0703 32.959-42.7246C35.9375-58.9355 51.0742-80.7129 80.6152-80.6641C110.156-80.6152 125.293-58.9355 128.32-42.7246C125.146-47.0703 119.873-50.1465 113.77-50.1465C107.812-50.1465 102.637-47.1191 99.2188-42.0898C98.877-41.6016 98.5352-41.3574 98.1934-41.3574C97.8516-41.3574 97.5586-41.6016 97.1191-42.0898Z"/>
  </g>
  <g id="Bold-L" transform="matrix(1 0 0 1 2261.49 1556)">
   <path d="M22.5098-27.0996C25.3906-27.0996 27.2949-28.6621 29.9805-31.3965C33.0566-35.498 36.6211-37.9395 41.5527-37.9395C46.4844-37.9395 49.8047-35.3516 53.2227-30.4688C54.834-28.418 56.4941-27.0996 58.8379-27.0996C61.1328-27.0996 62.8418-28.418 64.4531-30.4199C66.1621-32.8613 68.6035-34.9121 71.2891-36.2793L71.2891 13.0859C71.2891 17.0898 68.4082 20.3613 64.0137 20.3613C59.6191 20.3613 56.7383 17.041 56.7383 12.9395C56.7383 8.39844 53.6621 5.27344 49.6094 5.27344C45.459 5.27344 42.334 8.39844 42.334 13.0859C42.334 24.8535 51.7578 34.082 64.0625 34.082C76.3672 34.082 85.6934 25.8789 85.6934 13.4277L85.6934-36.3281C88.4277-35.0098 90.8691-32.959 92.5293-30.5664C94.2383-28.5156 95.8496-27.0996 98.0957-27.0996C100.439-27.0996 102.148-28.418 103.809-30.4199C107.227-35.2051 110.596-37.9395 115.479-37.9395C120.41-37.9395 123.975-35.5957 127.051-31.3477C129.639-28.6133 131.592-27.0996 134.473-27.0996C137.939-27.0996 140.918-29.9805 140.918-33.9355C140.918-57.0801 123.438-90.0391 85.6445-93.75L85.6445-101.025C85.6445-105.273 82.5684-108.398 78.4668-108.398C74.4141-108.398 71.2891-105.371 71.2891-101.025L71.2891-93.75C33.5449-90.0391 16.0645-57.0801 16.0645-33.9355C16.0645-29.9316 19.043-27.0996 22.5098-27.0996ZM95.5566-41.5527C91.9434-46.5332 85.3027-50.1953 78.4668-50.1953C71.6797-50.1953 65.0391-46.5332 61.4258-41.6016C61.084-41.1133 60.8398-40.918 60.498-40.918C60.1562-40.918 59.9121-41.1133 59.5703-41.6016C56.1523-47.0215 50.7812-50.0488 44.7266-50.0488C38.4277-50.0488 33.1543-46.8262 30.0293-42.4316C33.0078-58.9844 48.5352-81.3477 78.4668-81.2988C108.447-81.2988 123.926-58.9844 126.953-42.4316C123.828-46.8262 118.555-50.0488 112.256-50.0488C106.201-50.0488 100.781-46.9727 97.4121-41.5527C97.1191-41.1133 96.8262-40.8691 96.4844-40.8691C96.1426-40.8691 95.9473-41.1133 95.5566-41.5527Z"/>
  </g>
  <g id="Semibold-L" transform="matrix(1 0 0 1 1966.24 1556)">
   <path d="M21.7285-28.3203C24.1699-28.3203 25.7812-29.7363 27.8809-32.0312C31.1523-36.6699 35.0098-39.4043 40.4297-39.4043C45.8496-39.4043 49.3652-36.5723 52.6855-31.4453C54.0527-29.541 55.4688-28.3203 57.6172-28.3203C59.668-28.3203 61.1328-29.5898 62.5-31.4453C64.4043-34.4238 67.3828-36.8652 70.7031-38.2812L70.7031 12.5977C70.7031 17.041 67.5293 20.6055 62.6953 20.6055C57.959 20.6055 54.7363 16.9922 54.7363 12.5C54.7363 8.39844 52.0508 5.66406 48.4863 5.66406C44.8242 5.66406 42.1387 8.39844 42.1387 12.5977C42.1387 23.9258 51.0254 32.8125 62.7441 32.8125C74.5117 32.8125 83.3496 24.5605 83.3496 12.8418L83.3496-38.2812C86.6211-36.8652 89.6484-34.4727 91.5527-31.4941C92.9688-29.6387 94.3359-28.3203 96.4355-28.3203C98.5352-28.3203 99.9512-29.541 101.367-31.4453C104.736-36.4746 108.252-39.4043 113.623-39.4043C119.043-39.4043 122.9-36.7188 126.221-31.9824C128.174-29.6875 129.883-28.3203 132.324-28.3203C135.303-28.3203 137.988-30.7617 137.988-34.375C137.988-57.2266 120.654-89.3555 83.3008-92.627L83.3008-100.342C83.3008-104.15 80.6152-106.885 77.002-106.885C73.3887-106.885 70.7031-104.199 70.7031-100.342L70.7031-92.627C33.3984-89.3555 16.0645-57.2266 16.0645-34.375C16.0645-30.7129 18.7012-28.3203 21.7285-28.3203ZM94.4824-41.1621C90.8691-46.3867 84.1309-50.1953 77.002-50.1953C69.9219-50.1953 63.1348-46.3867 59.5703-41.2109C59.2285-40.7715 59.0332-40.5762 58.6914-40.5762C58.3984-40.5762 58.2031-40.7715 57.8613-41.2109C54.4434-46.9238 48.9258-50 42.7734-50C36.4258-50 31.1035-46.6309 28.0273-42.1875C31.0059-58.9844 46.7773-81.7383 77.002-81.7383C107.227-81.7383 122.998-58.9844 126.025-42.1875C122.9-46.6309 117.627-50 111.23-50C105.127-50 99.5605-46.9238 96.1426-41.1621C95.8496-40.7227 95.6055-40.5273 95.3125-40.5273C95.0195-40.5273 94.8242-40.7227 94.4824-41.1621Z"/>
  </g>
  <g id="Medium-L" transform="matrix(1 0 0 1 1670.65 1556)">
   <path d="M21.1426-29.1992C23.2422-29.1992 24.6582-30.5664 26.2207-32.4707C29.7363-37.5488 33.7891-40.4785 39.5508-40.4785C45.3613-40.4785 49.0234-37.5 52.2461-32.2266C53.418-30.4199 54.6875-29.1992 56.6406-29.1992C58.5449-29.1992 59.8633-30.4199 60.9863-32.1777C63.0859-35.5957 66.5039-38.2812 70.2637-39.6973L70.2637 12.2559C70.2637 17.041 66.8457 20.8008 61.7188 20.8008C56.6895 20.8008 53.2227 16.9922 53.2227 12.207C53.2227 8.39844 50.8301 5.95703 47.6074 5.95703C44.3848 5.95703 41.9922 8.39844 41.9922 12.2559C41.9922 23.1934 50.4883 31.7871 61.7676 31.7871C73.0469 31.7871 81.543 23.5352 81.543 12.3535L81.543-39.6973C85.3027-38.3301 88.7207-35.5957 90.7715-32.2266C91.9922-30.4688 93.2129-29.1992 95.1172-29.1992C97.0703-29.1992 98.3398-30.4199 99.5605-32.2266C102.881-37.4512 106.494-40.4785 112.256-40.4785C118.018-40.4785 122.07-37.5977 125.586-32.4707C127.1-30.5176 128.564-29.1992 130.664-29.1992C133.35-29.1992 135.742-31.3965 135.742-34.668C135.742-57.3242 118.555-88.8184 81.543-91.748L81.543-99.8535C81.543-103.32 79.1504-105.713 75.8789-105.713C72.6562-105.713 70.2637-103.369 70.2637-99.8535L70.2637-91.748C33.252-88.8184 16.0645-57.3242 16.0645-34.668C16.0645-31.3477 18.457-29.1992 21.1426-29.1992ZM93.6523-40.8691C90.0879-46.2891 83.2031-50.1465 75.8789-50.1465C68.6035-50.1465 61.7188-46.2891 58.1543-40.8691C57.8125-40.4785 57.666-40.2832 57.373-40.2832C57.0801-40.2832 56.8848-40.4785 56.5918-40.918C53.1738-46.875 47.5098-49.9512 41.3574-49.9512C34.8633-49.9512 29.541-46.5332 26.5137-42.041C29.4922-58.9844 45.459-82.0801 75.8789-82.0801C106.348-82.0801 122.314-58.9844 125.293-42.041C122.217-46.5332 116.895-49.9512 110.449-49.9512C104.297-49.9512 98.584-46.8262 95.166-40.8691C94.9219-40.4785 94.7266-40.2832 94.4336-40.2832C94.1406-40.2832 93.9941-40.4785 93.6523-40.8691Z"/>
  </g>
  <g id="Regular-L" transform="matrix(1 0 0 1 1375.41 1556)">
   <path d="M20.3613-30.4199C22.0703-30.4199 23.1934-31.5918 24.1211-33.1055C27.8809-38.6719 32.1777-41.9434 38.4277-41.9434C44.7266-41.9434 48.5352-38.7207 51.709-33.2031C52.6855-31.5918 53.7109-30.4199 55.4199-30.4199C57.1289-30.4199 58.1543-31.5918 59.082-33.1543C61.2793-37.1582 65.2832-40.1855 69.6777-41.5039L69.6777 11.7676C69.6777 16.9922 65.9668 21.0449 60.4492 21.0449C55.0293 21.0449 51.2695 16.9434 51.2695 11.7676C51.2695 8.34961 49.2188 6.34766 46.4844 6.34766C43.7988 6.34766 41.7969 8.34961 41.7969 11.7676C41.7969 22.2656 49.7559 30.5176 60.4492 30.5176C71.1914 30.5176 79.1992 22.2656 79.1992 11.7676L79.1992-41.5039C83.5449-40.1855 87.5488-37.1094 89.7949-33.1543C90.7227-31.5918 91.748-30.4199 93.457-30.4199C95.166-30.4199 96.1914-31.5918 97.168-33.2031C100.391-38.6719 104.15-41.9434 110.449-41.9434C116.699-41.9434 121.045-38.7207 124.756-33.1055C125.684-31.5918 126.807-30.4199 128.516-30.4199C130.762-30.4199 132.812-32.1777 132.812-35.1074C132.812-57.4707 115.771-88.1348 79.1992-90.5762L79.1992-99.2188C79.1992-102.246 77.1973-104.199 74.4141-104.199C71.6797-104.199 69.6777-102.246 69.6777-99.2188L69.6777-90.5762C33.0566-88.1348 16.0645-57.4707 16.0645-35.1074C16.0645-32.1777 18.1152-30.4199 20.3613-30.4199ZM92.5781-40.5273C89.0625-46.1426 81.9824-50.1465 74.4141-50.1465C66.8945-50.1465 59.8633-46.1426 56.25-40.5273C56.0059-40.0879 55.8594-39.9414 55.6152-39.9414C55.3223-39.9414 55.1758-40.0879 54.9316-40.5273C51.5137-46.7773 45.7031-49.9023 39.4531-49.9023C32.8613-49.9023 27.5391-46.3379 24.5117-41.8457C27.4902-58.9844 43.7012-82.5195 74.4141-82.5195C105.176-82.5195 121.387-58.9844 124.365-41.8457C121.338-46.3379 116.016-49.9023 109.424-49.9023C103.174-49.9023 97.3145-46.7773 93.9453-40.5273C93.7012-40.0879 93.5059-39.9414 93.2617-39.9414C93.0176-39.9414 92.8711-40.0879 92.5781-40.5273Z"/>
  </g>
  <g id="Light-L" transform="matrix(1 0 0 1 1080.04 1556)">
   <path d="M19.3359-31.5918C20.752-31.5918 21.6797-32.5684 22.4609-33.8379C26.4648-39.7461 31.0059-42.9199 37.2559-42.9199C43.5547-42.9199 47.5098-39.7949 50.8789-34.0332C51.7578-32.5195 52.6367-31.5918 54.1016-31.5918C55.5176-31.5918 56.3965-32.5195 57.2266-33.9844C59.668-38.2812 64.3066-41.4551 69.0918-42.5781L69.0918 10.6445C69.0918 16.2598 64.9902 20.5566 59.2285 20.5566C53.418 20.5566 49.3652 16.2598 49.3652 10.6445C49.3652 7.76367 47.7051 6.10352 45.3613 6.10352C43.0176 6.10352 41.4062 7.76367 41.4062 10.6445C41.4062 20.6543 49.0234 28.5156 59.2285 28.5156C69.3848 28.5156 77.0996 20.6543 77.0996 10.6445L77.0996-42.5781C81.8359-41.4062 86.4258-38.2324 88.916-33.9844C89.7949-32.5195 90.6738-31.5918 92.0898-31.5918C93.5059-31.5918 94.4336-32.5195 95.3125-34.0332C98.7305-39.7461 102.637-42.9199 108.936-42.9199C115.186-42.9199 119.678-39.7461 123.73-33.8379C124.512-32.5684 125.391-31.5918 126.855-31.5918C128.613-31.5918 130.127-32.959 130.127-35.2051C130.127-57.4707 113.037-87.3535 77.0996-89.4531L77.0996-98.4375C77.0996-101.025 75.3906-102.637 73.0957-102.637C70.752-102.637 69.0918-101.025 69.0918-98.4375L69.0918-89.4531C33.1543-87.3535 16.0645-57.4707 16.0645-35.2051C16.0645-32.959 17.5781-31.5918 19.3359-31.5918ZM91.4551-39.3555C88.0859-45.166 80.7129-49.1699 73.0957-49.1699C65.4297-49.1699 58.1543-45.166 54.7363-39.3555C54.541-39.0625 54.4434-38.8672 54.1992-38.8672C53.9551-38.8672 53.8574-39.0625 53.6621-39.3555C50.3418-45.5566 44.6777-49.0234 37.8906-49.0234C31.0547-49.0234 25.4883-45.2148 22.4121-40.5273C25.0488-58.8379 41.4551-83.252 73.0957-83.252C104.736-83.252 121.143-58.8379 123.779-40.5273C120.703-45.2148 115.137-49.0234 108.301-49.0234C101.514-49.0234 95.8008-45.5566 92.5293-39.3555C92.334-39.0625 92.1875-38.8672 91.9922-38.8672C91.748-38.8672 91.6504-39.0625 91.4551-39.3555Z"/>
  </g>
  <g id="Thin-L" transform="matrix(1 0 0 1 785.109 1556)">
   <path d="M18.0176-33.1543C19.0918-33.1543 19.6289-33.8867 20.2637-34.7656C24.6094-41.1133 29.4434-44.1895 35.6934-44.1895C41.9922-44.1895 46.1914-41.1621 49.7559-35.1562C50.5371-33.7891 51.2695-33.1543 52.2949-33.1543C53.3691-33.1543 54.0527-33.7891 54.834-35.0586C57.5195-39.7949 63.0371-43.0176 68.3105-43.9453L68.3105 9.13086C68.3105 15.332 63.7695 19.9219 57.6172 19.9219C51.3672 19.9219 46.8262 15.332 46.8262 9.13086C46.8262 6.98242 45.7031 5.76172 43.8965 5.76172C41.9922 5.76172 40.8691 6.98242 40.8691 9.13086C40.8691 18.6035 48.0957 25.8301 57.6172 25.8301C67.041 25.8301 74.3164 18.6035 74.3164 9.13086L74.3164-43.9453C79.4922-43.0176 85.0098-39.7461 87.793-35.0586C88.5254-33.7891 89.209-33.1543 90.2832-33.1543C91.3574-33.1543 92.041-33.7891 92.8711-35.1562C96.582-41.1133 100.635-44.1895 106.885-44.1895C113.184-44.1895 117.92-41.1133 122.363-34.7656C122.949-33.8867 123.535-33.1543 124.561-33.1543C125.732-33.1543 126.562-34.0332 126.562-35.4004C126.562-57.4707 109.375-86.3281 74.3164-87.8906L74.3164-97.4609C74.3164-99.4141 73.0469-100.537 71.2891-100.537C69.5312-100.537 68.3105-99.4141 68.3105-97.4609L68.3105-87.8906C33.252-86.3281 16.0645-57.4707 16.0645-35.4004C16.0645-34.0332 16.8945-33.1543 18.0176-33.1543ZM89.8926-37.8418C86.7676-43.8965 79.0527-47.9004 71.2891-47.9004C63.5254-47.9004 55.9082-43.8965 52.7344-37.8418C52.5879-37.6465 52.5391-37.5 52.3438-37.5C52.1484-37.5 52.0996-37.6465 51.9531-37.8418C48.7793-43.9941 43.3105-47.9004 35.8398-47.9004C28.7109-47.9004 22.8516-43.8477 19.7266-38.916C22.0215-59.0332 38.7207-84.2285 71.2891-84.2285C103.906-84.2285 120.557-59.0332 122.9-38.916C119.775-43.8477 113.867-47.9004 106.787-47.9004C99.3164-47.9004 93.75-43.9941 90.625-37.8418C90.5273-37.6465 90.4297-37.5 90.2832-37.5C90.0879-37.5 89.9902-37.6465 89.8926-37.8418Z"/>
  </g>
  <g id="Ultralight-L" transform="matrix(1 0 0 1 489.325 1556)">
   <path d="M67.9199-87.207L72.8516-87.207L72.8516-96.9238C72.8516-98.584 71.875-99.5117 70.4102-99.5117C68.8965-99.5117 67.9199-98.584 67.9199-96.9238ZM17.334-33.9844C18.2129-33.9844 18.6035-34.5215 19.1406-35.2539C23.6328-41.7969 28.6133-44.8242 34.9121-44.8242C41.1621-44.8242 45.5078-41.8945 49.1699-35.6934C49.9512-34.4727 50.5371-33.9844 51.416-33.9844C52.2949-33.9844 52.8809-34.4727 53.5645-35.5957C56.3965-40.5762 62.4512-43.8477 67.9199-44.6289L67.9199 8.34961C67.9199 14.8438 63.1348 19.5801 56.7383 19.5801C50.293 19.5801 45.5078 14.8438 45.5078 8.34961C45.5078 6.5918 44.6777 5.56641 43.1152 5.56641C41.4551 5.56641 40.625 6.5918 40.625 8.34961C40.625 17.5293 47.6074 24.4629 56.7383 24.4629C65.8203 24.4629 72.8516 17.5293 72.8516 8.34961L72.8516-44.6289C78.2715-43.7988 84.2285-40.5273 87.207-35.5957C87.8906-34.4727 88.4766-33.9844 89.3555-33.9844C90.2344-33.9844 90.8203-34.4727 91.6016-35.6934C95.459-41.7969 99.6094-44.8242 105.859-44.8242C112.158-44.8242 117.041-41.7969 121.631-35.2539C122.168-34.5215 122.559-33.9844 123.438-33.9844C124.219-33.9844 124.707-34.5703 124.707-35.4492C124.707-57.959 106.689-87.1582 70.4102-87.1582C34.1309-87.1582 16.0645-57.959 16.0645-35.4492C16.0645-34.5703 16.5527-33.9844 17.334-33.9844ZM89.1113-37.0605C86.1816-43.0664 78.6621-47.0215 70.9961-47.2656C70.8008-47.2656 70.6055-47.3145 70.4102-47.3145C70.166-47.3145 69.9707-47.2656 69.7754-47.2656C62.1582-47.0215 54.6875-43.0664 51.6602-37.0605C51.6113-36.9141 51.5625-36.7676 51.416-36.7676C51.2207-36.7676 51.1719-36.9141 51.123-37.0605C47.998-43.1641 42.5781-47.2656 34.7656-47.2656C27.5879-47.2656 21.582-43.1641 18.3594-38.1836C20.6055-59.2773 37.4023-84.7168 70.4102-84.7168C103.369-84.7168 120.166-59.2773 122.412-38.1836C119.238-43.1641 113.184-47.2656 106.006-47.2656C98.1934-47.2656 92.6758-43.1641 89.6484-37.0605C89.5996-36.9141 89.5508-36.7676 89.4043-36.7676C89.2578-36.7676 89.1602-36.9141 89.1113-37.0605Z"/>
  </g>
  <g id="Black-M" transform="matrix(1 0 0 1 2867.58 1126)">
   <path d="M20.0195-24.8535C23.7305-24.8535 26.1719-26.4648 30.6152-30.2246C32.1777-31.4453 33.9844-32.1777 35.9863-32.1777C37.9395-32.1777 39.8926-31.0547 42.9199-28.125C45.0684-25.9766 47.1191-24.8535 49.8047-24.8535C52.2461-24.8535 54.3945-26.0254 56.543-28.0273C56.7383-28.2227 56.9824-28.418 57.1777-28.6133L57.1777 3.41797C57.1777 5.0293 55.957 6.68945 53.9062 6.68945C51.9043 6.68945 50.5859 5.0293 50.5859 3.07617C50.5859-1.70898 47.0703-5.46875 42.2363-5.46875C37.1094-5.46875 33.3496-1.70898 33.3496 3.41797C33.3496 14.1602 42.4805 22.5098 54.0527 22.5098C65.5762 22.5098 74.4629 16.4062 74.4629 4.15039L74.4629-28.9062C74.707-28.7598 74.9023-28.5645 75.1465-28.3691C77.5391-26.2207 79.4434-24.8535 81.8848-24.8535C84.375-24.8535 86.5234-25.9766 88.8184-28.0273C91.8945-30.8105 93.9941-32.1777 95.8008-32.1777C97.7051-32.1777 99.5117-31.5918 101.172-30.1758C105.322-26.416 108.008-24.8535 111.67-24.8535C115.82-24.8535 119.189-28.4668 119.189-32.7148C119.189-51.6602 104.98-79.834 74.4141-84.3262L74.4141-88.3789C74.4141-93.2129 70.7031-96.9727 65.8203-96.9727C60.9863-96.9727 57.2754-93.3105 57.2754-88.3789L57.2754-84.3262C26.6602-79.834 12.4512-51.6602 12.4512-32.7148C12.4512-28.3203 15.8203-24.8535 20.0195-24.8535ZM77.6367-41.0156C74.8047-44.043 70.166-46.4355 65.8203-46.4355C61.5234-46.4355 56.8359-44.043 54.1016-41.0645C53.7109-40.6738 53.418-40.4785 53.0273-40.4785C52.7344-40.4785 52.3926-40.6738 52.002-41.1133C49.4629-44.0918 45.9473-46.5332 41.2598-46.5332C36.6211-46.5332 32.4707-44.2383 29.9316-40.8203C32.0312-53.3691 43.1152-69.6777 65.8203-69.6289C88.5254-69.5801 99.6094-53.3691 101.758-40.8203C99.1699-44.2383 95.0195-46.5332 90.3809-46.5332C85.6934-46.5332 82.1777-43.9941 79.6387-41.0156C79.2969-40.625 78.9551-40.3809 78.6133-40.3809C78.3203-40.3809 77.9785-40.625 77.6367-41.0156Z"/>
  </g>
  <g id="Heavy-M" transform="matrix(1 0 0 1 2572.6 1126)">
   <path d="M19.1406-26.2695C22.3145-26.2695 24.4629-27.7344 28.0273-30.9082C29.8828-32.8613 32.0312-33.9844 34.668-33.9844C37.3047-33.9844 39.502-32.5684 42.334-29.2969C44.1895-27.3438 45.9961-26.2695 48.3398-26.2695C50.5859-26.2695 52.3926-27.3926 54.248-29.248C54.9316-29.9805 55.6641-30.6641 56.543-31.25L56.543 3.02734C56.543 5.17578 54.9805 7.12891 52.3926 7.12891C49.9023 7.12891 48.291 5.17578 48.291 2.7832C48.291-1.5625 45.166-4.83398 40.918-4.83398C36.4746-4.83398 33.1543-1.5625 33.1543 3.02734C33.1543 13.2324 41.6504 21.1426 52.4902 21.1426C63.3301 21.1426 71.6797 14.9414 71.6797 3.61328L71.6797-31.4453C72.5098-30.8594 73.291-30.2246 73.9258-29.4922C75.9766-27.5391 77.5879-26.2695 79.834-26.2695C82.0801-26.2695 83.9355-27.3438 85.8887-29.248C88.7695-32.373 91.0645-33.9844 93.6035-33.9844C96.1914-33.9844 98.3398-32.959 100.244-30.8594C103.613-27.6855 105.908-26.2695 109.033-26.2695C112.695-26.2695 115.723-29.3945 115.723-33.252C115.723-51.8555 101.758-79.1016 71.6309-83.0566L71.6309-87.6465C71.6309-91.9434 68.3594-95.2148 64.1113-95.2148C59.8145-95.2148 56.5918-92.041 56.5918-87.6465L56.5918-83.0566C26.416-79.1016 12.4512-51.8555 12.4512-33.252C12.4512-29.2969 15.4785-26.2695 19.1406-26.2695ZM76.416-40.7715C73.584-44.0918 68.75-46.6309 64.1113-46.6309C59.4238-46.6309 54.5898-44.0918 51.8066-40.8203C51.4648-40.4297 51.2207-40.2832 50.8789-40.2832C50.5859-40.2832 50.293-40.4297 49.9512-40.8691C47.3633-44.2383 43.6035-46.6309 38.9648-46.6309C34.2285-46.6309 30.127-44.2871 27.6367-40.918C29.834-53.4668 41.2598-70.1172 64.1113-70.0684C86.9141-70.0195 98.3398-53.4668 100.537-40.918C98.0469-44.2871 93.9453-46.6309 89.209-46.6309C84.5703-46.6309 80.8105-44.1895 78.2227-40.7715C77.9297-40.3809 77.5879-40.1855 77.2949-40.1855C77.002-40.1855 76.7578-40.3809 76.416-40.7715Z"/>
  </g>
  <g id="Bold-M" transform="matrix(1 0 0 1 2277.84 1126)">
   <path d="M18.1641-27.832C20.752-27.832 22.5098-29.1992 25.1465-31.6895C27.2949-34.375 29.7852-36.0352 33.252-36.0352C36.6211-36.0352 39.0625-34.2285 41.748-30.6641C43.2129-28.9062 44.6777-27.832 46.7285-27.832C48.6816-27.832 50.2441-28.9551 51.6602-30.6152C52.7832-32.0312 54.1992-33.3008 55.7617-34.2285L55.7617 2.63672C55.7617 5.32227 53.8086 7.66602 50.7324 7.66602C47.7051 7.66602 45.7031 5.32227 45.7031 2.49023C45.7031-1.41602 43.0664-4.15039 39.4531-4.15039C35.7422-4.15039 32.959-1.41602 32.959 2.63672C32.959 12.207 40.7227 19.6777 50.7812 19.6777C60.8887 19.6777 68.5059 13.2812 68.5059 3.02734L68.5059-34.3262C70.1172-33.3984 71.5332-32.1777 72.6074-30.7617C74.1699-29.0527 75.5859-27.832 77.5391-27.832C79.541-27.832 81.0547-28.9062 82.5684-30.6152C85.3027-34.082 87.793-36.0352 91.1133-36.0352C94.5312-36.0352 97.0215-34.4727 99.2188-31.6406C101.709-29.1504 103.564-27.832 106.104-27.832C109.229-27.832 111.816-30.4199 111.816-33.8867C111.816-52.0508 98.1445-78.2715 68.5059-81.5918L68.5059-86.8164C68.5059-90.5273 65.7715-93.2617 62.1582-93.2617C58.5449-93.2617 55.8105-90.5762 55.8105-86.8164L55.8105-81.5918C26.1719-78.2715 12.4512-52.0508 12.4512-33.8867C12.4512-30.3711 15.0879-27.832 18.1641-27.832ZM75.0488-40.4785C72.2168-44.1406 67.1875-46.875 62.1582-46.875C57.0801-46.875 52.0996-44.1406 49.3164-40.5273C48.9746-40.1367 48.7793-39.9902 48.4863-39.9902C48.1934-39.9902 47.9492-40.1367 47.6562-40.5273C45.0195-44.4824 40.9668-46.7773 36.377-46.7773C31.5918-46.7773 27.4902-44.3848 25.0488-41.0156C27.3926-53.6133 39.209-70.5566 62.1582-70.5566C85.1074-70.5078 96.875-53.6133 99.2188-41.0156C96.7773-44.3848 92.6758-46.7773 87.9395-46.7773C83.3008-46.7773 79.248-44.4336 76.6113-40.4785C76.3672-40.1367 76.0742-39.9414 75.8301-39.9414C75.5371-39.9414 75.3418-40.1367 75.0488-40.4785Z"/>
  </g>
  <g id="Semibold-M" transform="matrix(1 0 0 1 1982.48 1126)">
   <path d="M17.4805-28.9062C19.6777-28.9062 21.1426-30.1758 23.1445-32.2266C25.4883-35.4492 28.2715-37.4512 32.2266-37.4512C36.1328-37.4512 38.7207-35.3516 41.3086-31.5918C42.5293-29.9805 43.7988-28.9062 45.6543-28.9062C47.4121-28.9062 48.7305-29.9805 49.9023-31.543C51.2207-33.4961 53.125-35.1074 55.2246-36.1816L55.2246 2.34375C55.2246 5.46875 53.0273 8.00781 49.5605 8.00781C46.1914 8.00781 43.9453 5.41992 43.9453 2.24609C43.9453-1.26953 41.6016-3.71094 38.4277-3.71094C35.2539-3.71094 32.8613-1.26953 32.8613 2.34375C32.8613 11.4746 40.0879 18.6523 49.6094 18.6523C59.1797 18.6523 66.3574 12.1582 66.3574 2.58789L66.3574-36.2305C68.5059-35.1562 70.4102-33.5449 71.6797-31.6406C72.9492-30.0781 74.1699-28.9062 75.9766-28.9062C77.7832-28.9062 79.0527-29.9805 80.3223-31.543C82.9102-35.2539 85.5469-37.4512 89.4043-37.4512C93.3594-37.4512 96.1426-35.5469 98.4863-32.2266C100.391-30.127 101.904-28.9062 104.102-28.9062C106.787-28.9062 109.131-31.1523 109.131-34.3262C109.131-52.1973 95.6543-77.7344 66.3574-80.5664L66.3574-86.2305C66.3574-89.5508 63.9648-91.9434 60.791-91.9434C57.666-91.9434 55.2734-89.5996 55.2734-86.2305L55.2734-80.5664C25.9766-77.7344 12.4512-52.1973 12.4512-34.3262C12.4512-31.1035 14.7949-28.9062 17.4805-28.9062ZM74.0723-40.2832C71.2402-44.1406 66.1133-47.0703 60.791-47.0703C55.4688-47.0703 50.3906-44.1406 47.5586-40.332C47.2656-39.9414 47.0703-39.7949 46.7773-39.7949C46.5332-39.7949 46.3379-39.9414 46.0938-40.332C43.4082-44.5801 39.1602-46.9238 34.5703-46.9238C29.7363-46.9238 25.6836-44.4336 23.291-41.0645C25.7324-53.7109 37.7441-70.8984 60.791-70.8496C83.8379-70.8496 95.8984-53.7109 98.291-41.0645C95.8984-44.4336 91.8457-46.9238 87.0117-46.9238C82.4219-46.9238 78.1738-44.5801 75.5371-40.2832C75.293-39.9414 75.0488-39.7461 74.8047-39.7461C74.5605-39.7461 74.3652-39.9414 74.0723-40.2832Z"/>
  </g>
  <g id="Medium-M" transform="matrix(1 0 0 1 1686.77 1126)">
   <path d="M16.9922-29.7363C18.8965-29.7363 20.166-30.9082 21.6309-32.6172C24.1699-36.2793 27.0996-38.4766 31.4453-38.4766C35.791-38.4766 38.5254-36.2305 40.9668-32.2754C41.9922-30.8105 43.1152-29.7363 44.7754-29.7363C46.4355-29.7363 47.5586-30.8105 48.584-32.2754C50.0488-34.6191 52.2949-36.5234 54.834-37.6465L54.834 2.14844C54.834 5.56641 52.4414 8.30078 48.7305 8.30078C45.0195 8.30078 42.5781 5.51758 42.5781 2.09961C42.5781-1.2207 40.4785-3.32031 37.6953-3.32031C34.8633-3.32031 32.7637-1.2207 32.7637 2.14844C32.7637 10.9375 39.5996 17.8711 48.7305 17.8711C57.8613 17.8711 64.6973 11.3281 64.6973 2.29492L64.6973-37.6465C67.2852-36.5234 69.5312-34.6191 70.9961-32.3242C72.0703-30.8594 73.0957-29.7363 74.7559-29.7363C76.416-29.7363 77.5391-30.8105 78.6133-32.2754C81.1035-36.1328 83.8379-38.4766 88.1348-38.4766C92.4805-38.4766 95.459-36.3281 97.9492-32.6172C99.4141-30.9082 100.684-29.7363 102.588-29.7363C104.98-29.7363 107.129-31.6895 107.129-34.6191C107.129-52.3438 93.75-77.2461 64.6973-79.7852L64.6973-85.791C64.6973-88.8184 62.5977-90.918 59.7656-90.918C56.9824-90.918 54.8828-88.8184 54.8828-85.791L54.8828-79.7852C25.7812-77.2461 12.4512-52.3438 12.4512-34.6191C12.4512-31.6895 14.5996-29.7363 16.9922-29.7363ZM73.3398-40.1367C70.5078-44.1895 65.332-47.168 59.7656-47.168C54.248-47.168 49.0723-44.1895 46.1914-40.1855C45.9473-39.7949 45.8008-39.6484 45.5566-39.6484C45.3125-39.6484 45.1172-39.7949 44.873-40.1855C42.1875-44.7266 37.793-46.9727 33.2031-46.9727C28.3691-46.9727 24.3164-44.4824 21.9727-41.1133C24.4629-53.7598 36.6699-71.1426 59.7656-71.1426C82.9102-71.0938 95.1172-53.7598 97.6074-41.1133C95.2148-44.4824 91.2109-46.9727 86.377-46.9727C81.7871-46.9727 77.3926-44.6777 74.707-40.1367C74.4629-39.7949 74.2676-39.6484 74.0234-39.6484C73.7793-39.6484 73.6328-39.7949 73.3398-40.1367Z"/>
  </g>
  <g id="Regular-M" transform="matrix(1 0 0 1 1391.4 1126)">
   <path d="M16.3086-30.8105C17.8223-30.8105 18.7988-31.8848 19.6289-33.1543C22.4121-37.3047 25.5859-39.8926 30.4688-39.8926C35.3516-39.8926 38.1836-37.3535 40.5762-33.2031C41.3086-31.8359 42.2363-30.8105 43.7012-30.8105C45.166-30.8105 46.0449-31.8359 46.8262-33.1543C48.4375-36.0352 51.1719-38.3301 54.3457-39.4531L54.3457 1.85547C54.3457 5.66406 51.6602 8.64258 47.5586 8.64258C43.5059 8.64258 40.8203 5.61523 40.8203 1.85547C40.8203-1.12305 39.0137-2.83203 36.6699-2.83203C34.375-2.83203 32.6172-1.12305 32.6172 1.85547C32.6172 10.2051 38.9648 16.8457 47.5586 16.8457C56.2012 16.8457 62.5977 10.2051 62.5977 1.85547L62.5977-39.4531C65.7227-38.3301 68.457-36.0352 70.0684-33.1543C70.8496-31.8359 71.7285-30.8105 73.1934-30.8105C74.707-30.8105 75.5859-31.8359 76.3672-33.2031C78.7598-37.3047 81.5918-39.8926 86.4258-39.8926C91.3086-39.8926 94.5312-37.3535 97.2656-33.1543C98.0957-31.8848 99.1211-30.8105 100.586-30.8105C102.588-30.8105 104.443-32.4219 104.443-35.0586C104.443-52.4902 91.3086-76.6602 62.5977-78.8086L62.5977-85.2539C62.5977-87.8418 60.8398-89.5996 58.4473-89.5996C56.1035-89.5996 54.3457-87.8418 54.3457-85.2539L54.3457-78.8086C25.5859-76.6602 12.4512-52.4902 12.4512-35.0586C12.4512-32.4219 14.3066-30.8105 16.3086-30.8105ZM72.4121-39.9902C69.5801-44.2383 64.2578-47.3145 58.4473-47.3145C52.6367-47.3145 47.3633-44.2383 44.4824-39.9902C44.2383-39.5996 44.1406-39.4531 43.8965-39.4531C43.6523-39.4531 43.5059-39.5996 43.3105-39.9902C40.5762-44.873 35.9863-47.0703 31.4453-47.0703C26.5625-47.0703 22.5586-44.5312 20.2148-41.2109C22.8027-53.8574 35.2539-71.4355 58.4473-71.4355C81.6406-71.4355 94.1406-53.8574 96.7285-41.2109C94.3848-44.5312 90.3809-47.0703 85.4492-47.0703C80.9082-47.0703 76.3184-44.873 73.6328-39.9902C73.3887-39.5996 73.2422-39.4531 72.998-39.4531C72.8027-39.4531 72.7051-39.5996 72.4121-39.9902Z"/>
  </g>
  <g id="Light-M" transform="matrix(1 0 0 1 1095.88 1126)">
   <path d="M15.4297-31.8848C16.6504-31.8848 17.4805-32.7637 18.1641-33.8379C21.1426-38.2324 24.5605-40.7715 29.3945-40.7715C34.2773-40.7715 37.3047-38.2812 39.7949-33.9355C40.5273-32.7148 41.2598-31.8848 42.5293-31.8848C43.75-31.8848 44.4824-32.7148 45.166-33.8867C46.9727-37.0605 50.2441-39.502 53.8086-40.4785L53.8086 0.830078C53.8086 5.0293 50.7812 8.20312 46.4355 8.20312C42.1387 8.20312 39.1113 4.98047 39.1113 0.830078C39.1113-1.61133 37.6465-3.07617 35.6934-3.07617C33.6914-3.07617 32.2754-1.61133 32.2754 0.830078C32.2754 8.78906 38.3301 15.0391 46.4355 15.0391C54.5898 15.0391 60.6934 8.78906 60.6934 0.830078L60.6934-40.4785C64.209-39.4531 67.4805-37.0605 69.2871-33.8867C70.0195-32.7148 70.752-31.8848 71.9727-31.8848C73.2422-31.8848 73.9746-32.7148 74.707-33.9355C77.2461-38.2324 80.2246-40.7715 85.1074-40.7715C89.9414-40.7715 93.3594-38.2812 96.3379-33.8379C97.0215-32.7637 97.8027-31.8848 99.0723-31.8848C100.635-31.8848 102.051-33.1055 102.051-35.1562C102.051-52.4414 88.8184-75.9766 60.6934-77.7344L60.6934-84.5703C60.6934-86.7676 59.2285-88.1836 57.2266-88.1836C55.2734-88.1836 53.8086-86.7676 53.8086-84.5703L53.8086-77.7344C25.6348-75.9766 12.4512-52.4414 12.4512-35.1562C12.4512-33.1055 13.8672-31.8848 15.4297-31.8848ZM71.3867-38.9648C68.7012-43.3594 63.1348-46.4844 57.2266-46.4844C51.3672-46.4844 45.8496-43.3594 43.1152-38.9648C42.9199-38.6719 42.8223-38.5254 42.627-38.5254C42.4316-38.5254 42.334-38.6719 42.1387-38.9648C39.5508-43.7988 35.0586-46.2891 30.0781-46.2891C24.9023-46.2891 20.6543-43.457 18.3105-39.8926C20.459-53.5645 33.1055-72.1191 57.2266-72.1191C81.3477-72.1191 94.043-53.5645 96.1914-39.8926C93.8477-43.457 89.5996-46.2891 84.4238-46.2891C79.4434-46.2891 74.9512-43.7988 72.3145-38.9648C72.168-38.6719 72.0703-38.5254 71.875-38.5254C71.6797-38.5254 71.582-38.6719 71.3867-38.9648Z"/>
  </g>
  <g id="Thin-M" transform="matrix(1 0 0 1 800.783 1126)">
   <path d="M14.2578-33.3008C15.1367-33.3008 15.6738-33.8867 16.1621-34.668C19.4824-39.502 23.1445-41.8945 28.0273-41.8945C32.8613-41.8945 36.084-39.5508 38.7695-34.9121C39.4531-33.8379 40.0391-33.3008 40.918-33.3008C41.8457-33.3008 42.4316-33.8379 43.0176-34.8633C45.0195-38.4277 49.1211-40.918 53.125-41.6992L53.125-0.537109C53.125 4.15039 49.707 7.61719 44.9707 7.61719C40.2344 7.61719 36.8164 4.15039 36.8164-0.537109C36.8164-2.34375 35.8398-3.36914 34.3262-3.36914C32.7637-3.36914 31.7871-2.34375 31.7871-0.537109C31.7871 6.93359 37.4512 12.6465 44.9707 12.6465C52.4902 12.6465 58.2031 6.93359 58.2031-0.537109L58.2031-41.6992C62.1582-40.918 66.1621-38.3789 68.2617-34.8633C68.8965-33.8379 69.4824-33.3008 70.3613-33.3008C71.2891-33.3008 71.8262-33.8379 72.5098-34.9121C75.3418-39.502 78.418-41.8945 83.3008-41.8945C88.1348-41.8945 91.7969-39.502 95.1172-34.668C95.6055-33.8867 96.1426-33.3008 97.0215-33.3008C98.0469-33.3008 98.8281-34.082 98.8281-35.3027C98.8281-52.4414 85.5469-75.0488 58.2031-76.3672L58.2031-83.6914C58.2031-85.3027 57.1289-86.3281 55.6641-86.3281C54.1504-86.3281 53.125-85.3027 53.125-83.6914L53.125-76.3672C25.7324-75.0488 12.4512-52.4414 12.4512-35.3027C12.4512-34.082 13.2324-33.3008 14.2578-33.3008ZM70.0195-37.5977C67.5293-42.2363 61.6211-45.3125 55.6641-45.3125C49.6582-45.3125 43.7988-42.2363 41.3086-37.5977C41.2109-37.4023 41.1133-37.3047 40.9668-37.3047C40.8203-37.3047 40.7227-37.4023 40.625-37.5977C38.1348-42.334 33.8379-45.2637 28.2227-45.2637C22.7539-45.2637 18.2617-42.1875 15.8691-38.4277C17.7246-53.6133 30.5664-72.998 55.6641-72.998C80.7129-72.998 93.6035-53.6133 95.4102-38.4277C93.0176-42.1875 88.5254-45.2637 83.0566-45.2637C77.4414-45.2637 73.0957-42.334 70.6543-37.5977C70.5566-37.4023 70.459-37.3047 70.3125-37.3047C70.166-37.3047 70.1172-37.4023 70.0195-37.5977Z"/>
  </g>
  <g id="Ultralight-M" transform="matrix(1 0 0 1 504.877 1126)">
   <path d="M13.6719-34.0332C14.4043-34.0332 14.7461-34.5215 15.1855-35.1074C18.6035-40.0879 22.4121-42.4805 27.2949-42.4805C32.1289-42.4805 35.4492-40.1855 38.2812-35.4492C38.916-34.4238 39.4043-34.0332 40.1367-34.0332C40.8691-34.0332 41.3574-34.4238 41.8945-35.3516C44.043-39.1602 48.584-41.6504 52.7344-42.2852L52.7344-1.2207C52.7344 3.71094 49.1211 7.32422 44.2383 7.32422C39.3066 7.32422 35.6445 3.71094 35.6445-1.2207C35.6445-2.68555 34.9609-3.56445 33.6426-3.56445C32.2754-3.56445 31.543-2.68555 31.543-1.2207C31.543 6.00586 37.0117 11.4258 44.2383 11.4258C51.3672 11.4258 56.8848 6.00586 56.8848-1.2207L56.8848-42.2852C61.0352-41.6504 65.5273-39.1113 67.7734-35.3516C68.3105-34.4238 68.7988-34.0332 69.5312-34.0332C70.2637-34.0332 70.752-34.4238 71.3867-35.4492C74.3164-40.0879 77.4902-42.4805 82.373-42.4805C87.207-42.4805 90.9668-40.0879 94.4824-35.1074C94.9219-34.5215 95.2637-34.0332 95.9961-34.0332C96.7285-34.0332 97.2168-34.5703 97.2168-35.4004C97.2168-52.4414 83.8867-74.5605 56.8848-75.6836L56.8848-83.2031C56.8848-84.5703 56.0547-85.3516 54.834-85.3516C53.6133-85.3516 52.7344-84.5703 52.7344-83.2031L52.7344-75.6836C25.7812-74.5605 12.4512-52.4414 12.4512-35.4004C12.4512-34.5703 12.9395-34.0332 13.6719-34.0332ZM69.2871-36.8652C66.9434-41.6504 60.8887-44.7266 54.834-44.7266C48.7793-44.7266 42.7734-41.6504 40.3809-36.8652C40.2832-36.7676 40.2344-36.6211 40.1367-36.6211C39.9902-36.6211 39.9414-36.7676 39.8926-36.8652C37.4512-41.6016 33.2031-44.7754 27.2461-44.7754C21.7285-44.7754 17.0898-41.6016 14.6484-37.7441C16.4062-53.8086 29.3457-73.4375 54.834-73.4375C80.2734-73.4375 93.2617-53.8086 95.0195-37.7441C92.5781-41.6016 87.9395-44.7754 82.373-44.7754C76.416-44.7754 72.1191-41.6016 69.7754-36.8652C69.7266-36.7676 69.6777-36.6211 69.5312-36.6211C69.4336-36.6211 69.3359-36.7676 69.2871-36.8652Z"/>
  </g>
  <g id="Black-S" transform="matrix(1 0 0 1 2881.94 696)">
   <path d="M15.625-27.1973C18.5059-27.1973 20.4102-28.4668 23.8281-31.3477C25.0488-32.373 26.5137-32.959 28.125-32.959C29.6875-32.959 31.25-32.0801 33.5938-29.7363C35.2539-28.0762 36.8652-27.1973 38.916-27.1973C40.8203-27.1973 42.4805-28.125 44.1406-29.6875C44.3359-29.8828 44.5801-30.0781 44.7754-30.2246L44.7754-4.98047C44.7754-3.66211 43.7988-2.34375 42.1387-2.34375C40.5273-2.34375 39.502-3.66211 39.502-5.22461C39.502-8.93555 36.7676-11.8652 33.0078-11.8652C29.0527-11.8652 26.123-8.93555 26.123-4.98047C26.123 3.41797 33.252 9.91211 42.2363 9.91211C51.2207 9.91211 58.1543 5.12695 58.1543-4.39453L58.1543-30.4688C58.3984-30.2734 58.5938-30.127 58.7891-29.9316C60.6445-28.2715 62.1094-27.1973 64.0137-27.1973C65.9668-27.1973 67.627-28.0762 69.3848-29.6875C71.7773-31.8848 73.4375-32.959 74.9023-32.959C76.4648-32.959 77.8809-32.4707 79.1992-31.2988C82.4219-28.418 84.4727-27.1973 87.3047-27.1973C90.5273-27.1973 93.1641-29.9805 93.1641-33.3008C93.1641-48.0957 82.0312-70.1172 58.1055-73.584L58.1055-76.8066C58.1055-80.5664 55.2246-83.4961 51.4648-83.4961C47.7051-83.4961 44.8242-80.6641 44.8242-76.8066L44.8242-73.584C20.8984-70.1172 9.76562-48.0957 9.76562-33.3008C9.76562-29.8828 12.4023-27.1973 15.625-27.1973ZM60.7422-39.7461C58.5449-42.1387 54.8828-44.043 51.4648-44.043C48.0469-44.043 44.3848-42.1387 42.2363-39.7949C41.9434-39.502 41.6992-39.3555 41.4062-39.3555C41.1621-39.3555 40.918-39.502 40.625-39.8438C38.623-42.1875 35.8398-44.0918 32.1777-44.0918C28.5645-44.0918 25.293-42.2852 23.291-39.5996C24.9512-49.4629 33.6914-62.2559 51.4648-62.207C69.2383-62.1582 77.9785-49.4629 79.6387-39.5996C77.6367-42.2852 74.3652-44.0918 70.752-44.0918C67.0898-44.0918 64.3066-42.1387 62.3047-39.7461C62.0605-39.4531 61.7676-39.2578 61.5234-39.2578C61.2793-39.2578 61.0352-39.4531 60.7422-39.7461Z"/>
  </g>
  <g id="Heavy-S" transform="matrix(1 0 0 1 2586.42 696)">
   <path d="M15.0391-28.1738C17.5781-28.1738 19.2383-29.3457 22.0215-31.7871C23.4375-33.3496 25.0977-34.2773 27.2461-34.2773C29.3457-34.2773 31.0547-33.1055 33.252-30.5664C34.668-29.0527 36.084-28.1738 37.9395-28.1738C39.6973-28.1738 41.1621-29.1016 42.5781-30.5176C43.0664-31.1035 43.7012-31.6406 44.3359-32.0801L44.3359-5.12695C44.3359-3.4668 43.1152-1.95312 41.1133-1.95312C39.1602-1.95312 37.9395-3.4668 37.9395-5.32227C37.9395-8.78906 35.4492-11.377 32.1289-11.377C28.6133-11.377 26.0254-8.78906 26.0254-5.12695C26.0254 2.88086 32.666 9.08203 41.2109 9.08203C49.707 9.08203 56.2012 4.15039 56.2012-4.6875L56.2012-32.2266C56.8848-31.7871 57.4707-31.25 57.959-30.7129C59.5215-29.1992 60.8398-28.1738 62.5977-28.1738C64.4043-28.1738 65.8203-29.0527 67.334-30.5176C69.5801-32.959 71.3379-34.2773 73.3887-34.2773C75.4395-34.2773 77.0996-33.3984 78.6133-31.7871C81.25-29.2969 83.0078-28.1738 85.498-28.1738C88.3789-28.1738 90.7715-30.6152 90.7715-33.6914C90.7715-48.2422 79.834-69.6289 56.2012-72.7539L56.2012-76.3184C56.2012-79.7363 53.6133-82.3242 50.2441-82.3242C46.9238-82.3242 44.3359-79.7852 44.3359-76.3184L44.3359-72.7539C20.7031-69.6289 9.76562-48.2422 9.76562-33.6914C9.76562-30.5664 12.1582-28.1738 15.0391-28.1738ZM59.9121-39.6973C57.7148-42.2852 53.9551-44.2871 50.2441-44.2871C46.582-44.2871 42.8223-42.2852 40.6738-39.6973C40.3809-39.4043 40.1855-39.2578 39.8926-39.2578C39.6484-39.2578 39.4531-39.4043 39.1602-39.7461C37.1094-42.4316 34.1309-44.2871 30.5664-44.2871C26.9043-44.2871 23.7305-42.4805 21.7773-39.8438C23.5352-49.5605 32.5195-62.5 50.2441-62.4512C68.0176-62.4512 77.002-49.5605 78.7598-39.8438C76.8066-42.4805 73.6328-44.2871 69.9707-44.2871C66.4062-44.2871 63.3789-42.4316 61.377-39.6973C61.1328-39.3555 60.8887-39.209 60.6445-39.209C60.4004-39.209 60.2051-39.3555 59.9121-39.6973Z"/>
  </g>
  <g id="Bold-S" transform="matrix(1 0 0 1 2291.05 696)">
   <path d="M14.4531-29.248C16.5039-29.248 17.9199-30.3223 19.9707-32.3242C21.6309-34.375 23.5352-35.6934 26.2695-35.6934C28.9551-35.6934 30.8105-34.2773 32.8613-31.4941C34.0332-30.127 35.2051-29.248 36.8652-29.248C38.4766-29.248 39.6973-30.127 40.8203-31.4941C41.6016-32.5195 42.6758-33.4961 43.7988-34.2285L43.7988-5.32227C43.7988-3.27148 42.334-1.51367 39.9902-1.51367C37.6465-1.51367 36.1816-3.32031 36.1816-5.46875C36.1816-8.59375 33.9844-10.791 31.1035-10.791C28.1738-10.791 25.9277-8.59375 25.9277-5.32227C25.9277 2.24609 32.0312 8.20312 40.0391 8.20312C47.998 8.20312 54.0527 3.07617 54.0527-5.0293L54.0527-34.2773C55.2246-33.5449 56.25-32.6172 57.0312-31.5918C58.3008-30.2246 59.375-29.248 60.9863-29.248C62.5977-29.248 63.8184-30.127 64.9902-31.4941C67.0898-34.1309 68.9941-35.6934 71.6309-35.6934C74.3164-35.6934 76.2695-34.4727 77.9297-32.3242C79.8828-30.2734 81.3477-29.248 83.4473-29.248C85.9375-29.248 88.0859-31.3477 88.0859-34.1797C88.0859-48.4375 77.3926-69.0918 54.0527-71.7285L54.0527-75.7812C54.0527-78.7598 51.8066-81.0059 48.9258-81.0059C46.0449-81.0059 43.8477-78.8086 43.8477-75.7812L43.8477-71.7285C20.459-69.0918 9.76562-48.4375 9.76562-34.1797C9.76562-31.2988 11.9141-29.248 14.4531-29.248ZM58.9844-39.5996C56.7383-42.4316 52.8809-44.5801 48.9258-44.5801C44.9707-44.5801 41.1133-42.4316 38.8672-39.5996C38.623-39.3066 38.4277-39.209 38.2324-39.209C37.9883-39.209 37.793-39.3066 37.5488-39.6484C35.4492-42.7246 32.2754-44.4824 28.7598-44.4824C25.0977-44.4824 21.9238-42.6758 20.0195-40.0879C21.9727-49.7559 31.2012-62.7441 48.9258-62.7441C66.6504-62.7441 75.8789-49.707 77.832-40.0879C75.9277-42.6758 72.8027-44.4824 69.0918-44.4824C65.625-44.4824 62.4023-42.7246 60.3027-39.5996C60.1074-39.3066 59.8633-39.1602 59.668-39.1602C59.4238-39.1602 59.2773-39.3066 58.9844-39.5996Z"/>
  </g>
  <g id="Semibold-S" transform="matrix(1 0 0 1 1995.27 696)">
   <path d="M14.0137-29.9805C15.7715-29.9805 16.9922-31.0059 18.5547-32.666C20.3613-35.1562 22.4609-36.7188 25.5859-36.7188C28.6621-36.7188 30.6641-35.0586 32.6172-32.1289C33.5938-30.8594 34.6191-29.9805 36.1328-29.9805C37.5977-29.9805 38.6719-30.8594 39.5996-32.1289C40.5762-33.5449 41.9434-34.8145 43.457-35.6445L43.457-5.46875C43.457-3.125 41.7969-1.17188 39.209-1.17188C36.6211-1.17188 34.9609-3.17383 34.9609-5.51758C34.9609-8.44727 33.0078-10.4004 30.4199-10.4004C27.832-10.4004 25.8301-8.44727 25.8301-5.46875C25.8301 1.80664 31.6406 7.56836 39.209 7.56836C46.875 7.56836 52.5391 2.34375 52.5391-5.27344L52.5391-35.6934C54.1016-34.8145 55.4688-33.5938 56.3965-32.2266C57.4219-30.9082 58.3984-29.9805 59.9121-29.9805C61.377-29.9805 62.4512-30.8594 63.4277-32.1289C65.3809-34.9609 67.3828-36.7188 70.459-36.7188C73.5352-36.7188 75.6836-35.2051 77.4902-32.666C79.0039-30.957 80.2246-29.9805 82.0312-29.9805C84.2773-29.9805 86.2305-31.8359 86.2305-34.4727C86.2305-48.5352 75.6836-68.7012 52.5391-71.0449L52.5391-75.3906C52.5391-78.125 50.5859-80.0781 47.998-80.0781C45.4102-80.0781 43.457-78.1738 43.457-75.3906L43.457-71.0449C20.3125-68.7012 9.76562-48.5352 9.76562-34.4727C9.76562-31.7871 11.7676-29.9805 14.0137-29.9805ZM58.3496-39.5508C56.1035-42.5293 52.1484-44.7754 47.998-44.7754C43.8477-44.7754 39.9414-42.5293 37.6465-39.5508C37.4023-39.2578 37.2559-39.1113 37.0605-39.1113C36.8164-39.1113 36.6699-39.2578 36.4258-39.5508C34.3262-42.9199 30.957-44.6289 27.4902-44.6289C23.8281-44.6289 20.752-42.7734 18.8477-40.2344C20.8984-49.8535 30.2734-62.9395 47.998-62.9395C65.7227-62.9395 75.0977-49.8535 77.1484-40.2344C75.293-42.7734 72.168-44.6289 68.5059-44.6289C65.0879-44.6289 61.7188-42.9199 59.5703-39.5508C59.375-39.209 59.1797-39.1113 58.9844-39.1113C58.7402-39.1113 58.6426-39.209 58.3496-39.5508Z"/>
  </g>
  <g id="Medium-S" transform="matrix(1 0 0 1 1699.24 696)">
   <path d="M13.6719-30.5176C15.2344-30.5176 16.3086-31.4941 17.5293-32.959C19.3848-35.6934 21.6309-37.4512 25.0488-37.4512C28.4668-37.4512 30.5176-35.6445 32.4219-32.6172C33.252-31.4453 34.1309-30.5176 35.5469-30.5176C36.9629-30.5176 37.8906-31.4453 38.6719-32.6172C39.7461-34.3262 41.3574-35.791 43.1641-36.7188L43.1641-5.56641C43.1641-3.02734 41.4062-0.976562 38.5742-0.976562C35.8398-0.976562 34.0332-3.07617 34.0332-5.61523C34.0332-8.34961 32.2266-10.1562 29.9316-10.1562C27.5879-10.1562 25.7812-8.34961 25.7812-5.56641C25.7812 1.46484 31.2988 7.08008 38.623 7.08008C45.9473 7.08008 51.416 1.80664 51.416-5.46875L51.416-36.7188C53.2715-35.8398 54.8828-34.375 55.9082-32.666C56.7871-31.4453 57.666-30.5176 59.0332-30.5176C60.4492-30.5176 61.377-31.4453 62.207-32.6172C64.1113-35.5957 66.1621-37.4512 69.5801-37.4512C72.9492-37.4512 75.2441-35.7422 77.0996-32.959C78.2715-31.4941 79.3945-30.5176 80.957-30.5176C83.0078-30.5176 84.8633-32.1777 84.8633-34.7168C84.8633-48.6328 74.4141-68.4082 51.416-70.5566L51.416-75.0977C51.416-77.6367 49.6582-79.3945 47.3145-79.3945C44.9707-79.3945 43.2129-77.6367 43.2129-75.0977L43.2129-70.5566C20.2148-68.4082 9.76562-48.6328 9.76562-34.7168C9.76562-32.1777 11.6211-30.5176 13.6719-30.5176ZM57.9102-39.502C55.5664-42.5781 51.6113-44.9219 47.3145-44.9219C43.0176-44.9219 39.0137-42.5781 36.7188-39.502C36.4746-39.1602 36.377-39.0625 36.1816-39.0625C35.9375-39.0625 35.791-39.1602 35.5957-39.502C33.4473-43.1152 29.9805-44.7754 26.5625-44.7754C22.9004-44.7754 19.8242-42.9199 17.9688-40.3809C20.1172-49.9512 29.5898-63.0859 47.3145-63.0859C64.9902-63.0859 74.5117-49.9512 76.6602-40.3809C74.8047-42.9199 71.7285-44.7754 68.0664-44.7754C64.6484-44.7754 61.1816-43.0664 59.0332-39.502C58.8379-39.1602 58.6426-39.0625 58.4473-39.0625C58.252-39.0625 58.1543-39.1602 57.9102-39.502Z"/>
  </g>
  <g id="Regular-S" transform="matrix(1 0 0 1 1403.46 696)">
   <path d="M13.2324-31.25C14.502-31.25 15.4297-32.1777 16.1133-33.3008C18.1641-36.4258 20.6055-38.4766 24.4141-38.4766C28.2227-38.4766 30.3711-36.4258 32.1777-33.252C32.7637-32.1777 33.5449-31.25 34.8145-31.25C36.084-31.25 36.8652-32.1777 37.5-33.252C38.6719-35.3516 40.5762-37.1094 42.8223-38.0371L42.8223-5.66406C42.8223-2.88086 40.8691-0.634766 37.793-0.634766C34.8145-0.634766 32.8613-2.92969 32.8613-5.66406C32.8613-8.25195 31.25-9.76562 29.248-9.76562C27.2949-9.76562 25.7324-8.25195 25.7324-5.66406C25.7324 1.07422 30.8594 6.44531 37.793 6.44531C44.8242 6.44531 49.9512 1.07422 49.9512-5.66406L49.9512-38.0371C52.1973-37.1094 54.1016-35.3516 55.3223-33.252C55.9082-32.1777 56.6895-31.25 57.959-31.25C59.2285-31.25 60.0098-32.1777 60.6445-33.252C62.4023-36.4258 64.5996-38.4766 68.4082-38.4766C72.2168-38.4766 74.6582-36.4746 76.6602-33.3008C77.3926-32.1777 78.2715-31.25 79.541-31.25C81.3477-31.25 83.0078-32.666 83.0078-35.0098C83.0078-48.7305 72.7539-68.0176 49.9512-69.873L49.9512-74.7559C49.9512-77.002 48.4375-78.5156 46.3867-78.5156C44.3359-78.5156 42.8223-77.002 42.8223-74.7559L42.8223-69.873C20.0684-68.0176 9.76562-48.7305 9.76562-35.0098C9.76562-32.666 11.4746-31.25 13.2324-31.25ZM57.2754-39.4531C54.9316-42.6758 50.8789-45.1172 46.3867-45.1172C41.8945-45.1172 37.8418-42.6758 35.5469-39.4531C35.3027-39.1113 35.2051-39.0137 35.0098-39.0137C34.8145-39.0137 34.668-39.1113 34.4727-39.4531C32.3242-43.3105 28.6621-44.9219 25.3418-44.9219C21.6309-44.9219 18.6523-43.0176 16.7969-40.5762C19.043-50.0977 28.7109-63.2812 46.3867-63.2812C64.0625-63.2812 73.7305-50.0977 75.9766-40.5762C74.1699-43.0176 71.1426-44.9219 67.4805-44.9219C64.1113-44.9219 60.498-43.3105 58.3008-39.4531C58.1055-39.1113 57.959-39.0137 57.7637-39.0137C57.5684-39.0137 57.4707-39.1113 57.2754-39.4531Z"/>
  </g>
  <g id="Light-S" transform="matrix(1 0 0 1 1107.82 696)">
   <path d="M12.4512-32.2266C13.5254-32.2266 14.209-32.959 14.7949-33.8867C17.041-37.2559 19.6289-39.209 23.4375-39.209C27.2461-39.209 29.5898-37.2559 31.4941-33.9355C32.0801-32.9102 32.7148-32.2266 33.7891-32.2266C34.8145-32.2266 35.4492-32.9102 36.0352-33.9355C37.3535-36.2793 39.7461-38.1348 42.3828-38.9648L42.3828-6.5918C42.3828-3.4668 40.1367-1.02539 36.8164-1.02539C33.5449-1.02539 31.2988-3.4668 31.2988-6.5918C31.2988-8.69141 30.0293-9.96094 28.3203-9.96094C26.6602-9.96094 25.4395-8.69141 25.4395-6.5918C25.4395-0.195312 30.2734 4.88281 36.8164 4.88281C43.4082 4.88281 48.291-0.195312 48.291-6.5918L48.291-38.9648C50.8789-38.1348 53.2715-36.2793 54.5898-33.9355C55.1758-32.9102 55.8105-32.2266 56.8848-32.2266C57.959-32.2266 58.5938-32.9102 59.1797-33.9355C61.1328-37.2559 63.3789-39.209 67.1875-39.209C70.9961-39.209 73.6328-37.2559 75.8301-33.8867C76.416-32.959 77.1484-32.2266 78.2227-32.2266C79.5898-32.2266 80.8594-33.3008 80.8594-35.1074C80.8594-48.7305 70.5566-67.4316 48.291-68.9453L48.291-74.1699C48.291-76.0254 47.0215-77.2461 45.3125-77.2461C43.6035-77.2461 42.3828-76.0254 42.3828-74.1699L42.3828-68.9453C20.0684-67.4316 9.76562-48.7305 9.76562-35.1074C9.76562-33.3008 11.0352-32.2266 12.4512-32.2266ZM56.3477-38.5254C54.1504-41.9434 49.9023-44.3848 45.3125-44.3848C40.7227-44.3848 36.5234-41.9434 34.3262-38.5254C34.1309-38.2812 34.0332-38.1836 33.8867-38.1836C33.7402-38.1836 33.6426-38.2812 33.4961-38.5254C31.3965-42.334 27.832-44.1895 24.0723-44.1895C20.1172-44.1895 16.8945-42.0898 15.0879-39.3555C16.8945-49.707 26.7578-63.8672 45.3125-63.8672C63.8672-63.8672 73.7305-49.707 75.5859-39.3555C73.7305-42.0898 70.5078-44.1895 66.5527-44.1895C62.793-44.1895 59.2285-42.334 57.1777-38.5254C57.0312-38.2812 56.9336-38.1836 56.7383-38.1836C56.5918-38.1836 56.4941-38.2812 56.3477-38.5254Z"/>
  </g>
  <g id="Thin-S" transform="matrix(1 0 0 1 812.501 696)">
   <path d="M11.4258-33.4473C12.1582-33.4473 12.6465-33.9844 13.0859-34.6191C15.5762-38.3301 18.4082-40.2344 22.2168-40.2344C26.0254-40.2344 28.5156-38.3789 30.6152-34.8145C31.1035-33.9355 31.5918-33.4473 32.373-33.4473C33.1543-33.4473 33.6426-33.9355 34.1309-34.7656C35.6445-37.5 38.7207-39.4043 41.748-40.0879L41.748-7.76367C41.748-4.19922 39.1602-1.51367 35.5469-1.51367C31.8848-1.51367 29.2969-4.19922 29.2969-7.76367C29.2969-9.32617 28.4668-10.2051 27.1484-10.2051C25.8789-10.2051 25-9.32617 25-7.76367C25-1.85547 29.541 2.73438 35.5469 2.73438C41.5039 2.73438 46.0938-1.85547 46.0938-7.76367L46.0938-40.0879C49.0723-39.4043 52.0996-37.4512 53.7109-34.7656C54.1992-33.9355 54.6875-33.4473 55.4688-33.4473C56.2012-33.4473 56.6895-33.9355 57.2266-34.8145C59.375-38.3301 61.8164-40.2344 65.625-40.2344C69.4336-40.2344 72.2168-38.3301 74.7559-34.6191C75.1953-33.9844 75.6348-33.4473 76.416-33.4473C77.3438-33.4473 78.0762-34.1309 78.0762-35.2539C78.0762-48.7305 67.6758-66.6016 46.0938-67.7246L46.0938-73.3398C46.0938-74.7559 45.166-75.5859 43.8965-75.5859C42.6758-75.5859 41.748-74.7559 41.748-73.3398L41.748-67.7246C20.166-66.6016 9.76562-48.7305 9.76562-35.2539C9.76562-34.1309 10.498-33.4473 11.4258-33.4473ZM55.127-37.3535C53.125-40.918 48.584-43.3594 43.8965-43.3594C39.2578-43.3594 34.7168-40.918 32.7148-37.3535C32.6172-37.1582 32.5684-37.0605 32.4219-37.0605C32.3242-37.0605 32.2266-37.1582 32.1289-37.3535C30.1758-41.0645 26.7578-43.3105 22.4609-43.3105C18.2617-43.3105 14.7461-40.918 12.8906-37.9883C14.4043-49.5605 24.4141-64.6484 43.8965-64.6484C63.3789-64.6484 73.4375-49.5605 74.9023-37.9883C73.0469-40.918 69.5801-43.3105 65.3809-43.3105C61.084-43.3105 57.6172-41.0645 55.6641-37.3535C55.6152-37.1582 55.5176-37.0605 55.4199-37.0605C55.2734-37.0605 55.2246-37.1582 55.127-37.3535Z"/>
  </g>
  <g id="Ultralight-S" transform="matrix(1 0 0 1 516.523 696)">
   <path d="M34.8633 1.66016C40.5762 1.66016 44.9219-2.68555 44.9219-8.39844L44.9219-40.625C48.1445-40.0391 51.5137-38.0859 53.2227-35.2051C53.6621-34.4727 54.1016-34.082 54.6875-34.082C55.3223-34.082 55.7617-34.4727 56.25-35.2539C58.4961-38.8672 60.9863-40.7715 64.7949-40.7715C68.6035-40.7715 71.4844-38.8672 74.2188-35.0098C74.5605-34.5215 74.9023-34.082 75.4883-34.082C76.1719-34.082 76.6113-34.5703 76.6113-35.3516C76.6113-48.7305 66.1621-66.2109 44.9219-67.0898L44.9219-72.9492C44.9219-74.0723 44.1895-74.7559 43.1641-74.7559C42.1387-74.7559 41.4062-74.0723 41.4062-72.9492L41.4062-67.0898C20.2148-66.2109 9.76562-48.7305 9.76562-35.3516C9.76562-34.5703 10.2051-34.082 10.8887-34.082C11.4746-34.082 11.8164-34.5215 12.1582-35.0098C14.8438-38.8672 17.7734-40.7715 21.582-40.7715C25.3906-40.7715 27.9785-38.916 30.127-35.2539C30.6152-34.4727 31.0547-34.082 31.6406-34.082C32.2754-34.082 32.666-34.4727 33.1543-35.2051C34.7656-38.1348 38.2324-40.0879 41.4062-40.625L41.4062-8.39844C41.4062-4.58984 38.623-1.80664 34.8633-1.80664C31.0547-1.80664 28.2715-4.58984 28.2715-8.39844C28.2715-9.66797 27.6367-10.3516 26.5625-10.3516C25.4395-10.3516 24.8047-9.66797 24.8047-8.39844C24.8047-2.68555 29.1504 1.66016 34.8633 1.66016ZM54.4922-36.7188C52.5879-40.3809 47.9004-42.8223 43.1641-42.8223C38.4766-42.8223 33.7891-40.3809 31.8848-36.7188C31.8359-36.6211 31.7871-36.5234 31.6895-36.5234C31.543-36.5234 31.4941-36.6211 31.4453-36.7188C29.541-40.4297 26.2207-42.8223 21.6309-42.8223C17.2852-42.8223 13.7207-40.3809 11.8164-37.3535C13.1836-49.707 23.3398-65.0391 43.1641-65.0391C63.0371-65.0391 73.1445-49.707 74.5605-37.3535C72.6562-40.3809 69.043-42.8223 64.7461-42.8223C60.1562-42.8223 56.7871-40.4297 54.9316-36.7188C54.834-36.6211 54.7852-36.5234 54.6875-36.5234C54.5898-36.5234 54.541-36.6211 54.4922-36.7188Z"/>
  </g>
 </g>
</svg>
